<?xml version="1.0" encoding="UTF-8" standalone="no"?>
<svg
   xmlns:dc="http://purl.org/dc/elements/1.1/"
   xmlns:cc="http://creativecommons.org/ns#"
   xmlns:rdf="http://www.w3.org/1999/02/22-rdf-syntax-ns#"
   xmlns:svg="http://www.w3.org/2000/svg"
   xmlns="http://www.w3.org/2000/svg"
   xmlns:sodipodi="http://sodipodi.sourceforge.net/DTD/sodipodi-0.dtd"
   xmlns:inkscape="http://www.inkscape.org/namespaces/inkscape"
   width="229.189mm"
   height="447.184mm"
   viewBox="0 0 229.189 447.184"
   id="svg5814"
   version="1.1"
   inkscape:version="0.91 r13725"
   sodipodi:docname="all-parts.svg">
  <metadata
     id="metadata7450">
    <rdf:RDF>
      <cc:Work
         rdf:about="">
        <dc:format>image/svg+xml</dc:format>
        <dc:type
           rdf:resource="http://purl.org/dc/dcmitype/StillImage" />
        <dc:title>Exported SVG</dc:title>
      </cc:Work>
    </rdf:RDF>
  </metadata>
  <defs
     id="defs7448">
    <clipPath
       id="clipPath8230"
       clipPathUnits="userSpaceOnUse">
      <path
         inkscape:connector-curvature="0"
         id="path8232"
         d="m 0,401.977 1335.807,0 L 1335.807,0 0,0 0,401.977 Z" />
    </clipPath>
    <clipPath
       id="clipPath8330"
       clipPathUnits="userSpaceOnUse">
      <path
         inkscape:connector-curvature="0"
         id="path8332"
         d="m 0,401.977 1335.807,0 L 1335.807,0 0,0 0,401.977 Z" />
    </clipPath>
    <clipPath
       id="clipPath8342"
       clipPathUnits="userSpaceOnUse">
      <path
         inkscape:connector-curvature="0"
         id="path8344"
         d="m 0,401.977 1335.807,0 L 1335.807,0 0,0 0,401.977 Z" />
    </clipPath>
    <clipPath
       id="clipPath8354"
       clipPathUnits="userSpaceOnUse">
      <path
         inkscape:connector-curvature="0"
         id="path8356"
         d="m 0,401.977 1335.807,0 L 1335.807,0 0,0 0,401.977 Z" />
    </clipPath>
    <clipPath
       id="clipPath8366"
       clipPathUnits="userSpaceOnUse">
      <path
         inkscape:connector-curvature="0"
         id="path8368"
         d="m 0,401.977 1335.807,0 L 1335.807,0 0,0 0,401.977 Z" />
    </clipPath>
  </defs>
  <sodipodi:namedview
     pagecolor="#ffffff"
     bordercolor="#666666"
     borderopacity="1"
     objecttolerance="10"
     gridtolerance="10"
     guidetolerance="10"
     inkscape:pageopacity="0"
     inkscape:pageshadow="2"
     inkscape:window-width="2560"
     inkscape:window-height="1404"
     id="namedview7446"
     showgrid="false"
     inkscape:zoom="0.5957677"
     inkscape:cx="773.07376"
     inkscape:cy="1198.8106"
     inkscape:window-x="0"
     inkscape:window-y="36"
     inkscape:window-maximized="0"
     inkscape:current-layer="svg5814"
     inkscape:snap-bbox="true"
     inkscape:object-paths="true"
     inkscape:snap-intersection-paths="true"
     inkscape:object-nodes="true"
     inkscape:snap-smooth-nodes="true"
     inkscape:snap-global="false" />
  <title
     id="title5816">Exported SVG</title>
  <style
     id="style5818"><![CDATA[
polygon {
shape-rendering:crispEdges;
stroke-width:0.447184;
}
.s1 {
stroke:#000000;
stroke-width:0.259200;
stroke-linecap:round;
stroke-linejoin:round;
fill:none;
}
.s2 {
stroke:#19b219;
stroke-width:0.259200;
stroke-linecap:round;
stroke-linejoin:round;
fill:none;
}
.s3 {
stroke:#7f4c00;
stroke-width:0.259200;
stroke-linecap:round;
stroke-linejoin:round;
fill:none;
}
.s4 {
stroke:#00cc00;
stroke-width:0.259200;
stroke-linecap:round;
stroke-linejoin:round;
fill:none;
}
.s5 {
stroke:#000000;
stroke-width:0.172800;
stroke-linecap:round;
stroke-linejoin:round;
fill:none;
}
.s6 {
stroke:#ff19ff;
stroke-width:0.172800;
stroke-linecap:round;
stroke-linejoin:round;
fill:none;
}
.s7 {
stroke:#ff0000;
stroke-width:0.259200;
stroke-linecap:round;
stroke-linejoin:round;
fill:none;
}
.s8 {
stroke:#ffff00;
stroke-width:0.259200;
stroke-linecap:round;
stroke-linejoin:round;
fill:none;
}
.s9 {
stroke:#001919;
stroke-width:0.172800;
stroke-linecap:round;
stroke-linejoin:round;
fill:none;
}
.sa {
stroke:#006666;
stroke-width:0.172800;
stroke-linecap:round;
stroke-linejoin:round;
fill:none;
}
.sb {
stroke:#00ffff;
stroke-width:0.172800;
stroke-linecap:round;
stroke-linejoin:round;
fill:none;
}
.sc {
stroke:#ff0000;
stroke-width:1.382400;
stroke-linecap:round;
stroke-linejoin:round;
fill:none;
}
.sd {
stroke:#191919;
stroke-width:0.172800;
stroke-linecap:round;
stroke-linejoin:round;
fill:none;
}
.se {
stroke:#000000;
stroke-width:0.172800;
stroke-linecap:round;
stroke-linejoin:round;
stroke-dasharray:2.592,2.592;
fill:none;
}
.sf {
stroke:#000000;
stroke-width:0.518400;
stroke-linecap:round;
stroke-linejoin:round;
fill:none;
}
]]></style>
  <path
     d="m 171.65328,114.41868 -44.99999,-34.921001 -44.999972,34.921001 0,50 89.999962,0 0,-50 m -84.999962,2.448 39.999972,-31.040003 39.99999,31.040003 0,26.162 -79.999962,0 0,-26.162"
     class="s0"
     id="path5820"
     style="fill:none;stroke:#000000;stroke-width:0.28222221;stroke-miterlimit:4.42857122;stroke-dasharray:none"
     inkscape:connector-curvature="0" />
  <path
     d="m 30.829906,73.839021 0,89.999999 16.999996,0 0,-89.999999 -16.999996,0"
     class="s0"
     id="path5822"
     style="fill:none;stroke:#000000;stroke-width:0.28222221;stroke-miterlimit:4.42857122;stroke-dasharray:none"
     inkscape:connector-curvature="0" />
  <path
     d="m 3.6505035,28.505716 0,25.000002 75.9329935,0 0,-25.000002 -18.973001,0 -56.9599925,0"
     class="s0"
     id="path5824"
     style="fill:none;stroke:#000000;stroke-width:0.28222221;stroke-miterlimit:4.42857122;stroke-dasharray:none"
     inkscape:connector-curvature="0" />
  <path
     d="m 4.2463815,163.81015 25.0000005,0 0,-78.933001 -25.0000005,0 0,2.999999 0,75.933002"
     class="s0"
     id="path5826"
     style="fill:none;stroke:#000000;stroke-width:0.28222221;stroke-miterlimit:4.42857122;stroke-dasharray:none"
     inkscape:connector-curvature="0" />
  <path
     d="m 126.74199,78.161 44.99999,34.92099 45,-34.92099 0,-50.000003 -89.99999,0 0,50.000003 m 84.99999,-2.449 -40,31.041 -39.99999,-31.041 0,-45.034003 79.99999,0 0,45.034003"
     class="s0"
     id="path5828"
     style="fill:none;stroke:#000000;stroke-width:0.28222221;stroke-miterlimit:4.42857122;stroke-dasharray:none"
     inkscape:connector-curvature="0" />
  <path
     d="m 79.908301,54.519322 -29.999999,0 0,110.007988 29.999999,0 0,-110.007988"
     class="s0"
     id="path5830"
     style="fill:none;stroke:#000000;stroke-width:0.28222221;stroke-miterlimit:4.42857122;stroke-dasharray:none"
     inkscape:connector-curvature="0" />
  <path
     d="m 49.038229,55.189818 -45.0247275,0 0,17 45.0247275,0 0,-17"
     class="s0"
     id="path5832"
     style="fill:none;stroke:#000000;stroke-width:0.28222221;stroke-miterlimit:4.42857122;stroke-dasharray:none"
     inkscape:connector-curvature="0" />
  <path
     inkscape:connector-curvature="0"
     style="opacity:0.3;fill:none;stroke:#ff00ff;stroke-width:0.28222221;stroke-miterlimit:4;stroke-dasharray:none"
     id="path8070"
     class="s0"
     d="m 345.94914,45.635538 -45,-34.920992 -44.99999,34.920992 0,50 89.99999,0 0,-50 m -84.99999,2.449 39.99999,-31.040995 40,31.040995 0,45.034 -79.99999,0 0,-45.034" />
  <path
     sodipodi:type="star"
     style="opacity:1;fill:none;stroke:#ff00ff;stroke-width:0.72285122;stroke-linecap:round;stroke-linejoin:miter;stroke-miterlimit:4;stroke-dasharray:none;stroke-dashoffset:0"
     id="path8072"
     sodipodi:sides="6"
     sodipodi:cx="-438.42703"
     sodipodi:cy="187.76131"
     sodipodi:r1="19.407162"
     sodipodi:r2="8.4342642"
     sodipodi:arg1="1.8471145"
     sodipodi:arg2="2.3707132"
     inkscape:flatsided="false"
     inkscape:rounded="0.01"
     inkscape:randomized="0"
     d="m -443.7216,206.43229 c -0.12331,-0.035 -0.66601,-12.70234 -0.75531,-12.79427 -0.0893,-0.0919 -12.73558,-1.00219 -12.76695,-1.12646 -0.0314,-0.12426 10.66754,-6.92795 10.70251,-7.05125 0.035,-0.1233 -5.49987,-11.53042 -5.40794,-11.61973 0.0919,-0.0893 11.33355,5.77439 11.45782,5.74302 0.12426,-0.0314 7.23571,-10.52824 7.35901,-10.49327 0.1233,0.035 0.66601,12.70233 0.75531,12.79427 0.0893,0.0919 12.73557,1.00218 12.76694,1.12645 0.0314,0.12427 -10.66753,6.92795 -10.7025,7.05125 -0.035,0.12331 5.49987,11.53043 5.40793,11.61973 -0.0919,0.0893 -11.33355,-5.77439 -11.45781,-5.74302 -0.12427,0.0314 -7.23571,10.52824 -7.35901,10.49328 z"
     transform="matrix(-0.39089147,0,0,0.38996744,157.63457,73.70942)" />
  <path
     style="fill:none;fill-rule:evenodd;stroke:#ff00ff;stroke-width:0.28222221px;stroke-linecap:butt;stroke-linejoin:miter;stroke-opacity:1"
     d="m 332.92895,144.43422 c 10.21655,-2.50243 15.77098,2.18259 16.99171,4.11629 -1.20961,-0.19073 -1.6208,-0.15768 -2.51352,0.0264 0.63494,0.55352 1.38345,1.71726 1.74448,3.15878 -1.51265,-0.98638 -2.67889,-1.22414 -2.67889,-1.22414 0.56196,1.09775 0.75889,2.95239 0.6646,4.08409 -3.08108,-4.93611 -7.62144,-7.98423 -13.39767,-7.54028"
     id="path8074"
     inkscape:connector-curvature="0"
     sodipodi:nodetypes="ccccccc" />
  <g
     id="g6233"
     style="stroke:#ff00ff"
     transform="translate(385.2096,-82.401352)">
    <path
       sodipodi:nodetypes="ccscccccccccccccssc"
       inkscape:connector-curvature="0"
       id="path8038"
       transform="scale(0.28222222,0.2822222)"
       d="m -340.55469,311.50781 c -0.4369,0.1239 -2.35936,45.00824 -2.67578,45.33399 -0.31642,0.32574 -45.12712,3.54992 -45.23828,3.99023 -0.11116,0.44032 37.79993,24.54747 37.92383,24.98438 0.12389,0.4369 -19.48786,40.8574 -19.16211,41.17382 0.32574,0.31643 40.15734,-20.46076 40.59765,-20.34961 0.44032,0.11116 25.63927,37.30359 26.07618,37.17969 0.4369,-0.12389 2.35936,-45.00824 2.67578,-45.33398 0.31642,-0.32575 45.12517,-3.54992 45.23633,-3.99024 0.0661,-0.26179 -12.9288,-8.65015 -23.81055,-15.69531 52.35605,-4.03047 93.50983,23.66369 121.4375,68.51172 0.85468,-10.28289 -0.92942,-27.13312 -6.02344,-37.10742 0,0 10.5715,2.15865 24.2832,11.12109 -3.27264,-13.0979 -10.05703,-23.67187 -15.8125,-28.70117 8.09221,-1.67226 11.81841,-1.97135 22.78321,-0.23828 -11.06534,-17.56957 -61.41163,-60.13841 -154.01758,-37.4043 5.62771,-11.84665 12.59862,-26.45198 12.40039,-26.64453 -0.32575,-0.31642 -40.15734,20.46077 -40.59766,20.34961 -0.44031,-0.11116 -25.63926,-37.30358 -26.07617,-37.17969 z"
       style="opacity:1;fill:none;stroke:#ff00ff;stroke-width:1;stroke-linecap:round;stroke-linejoin:miter;stroke-miterlimit:4;stroke-dasharray:none;stroke-dashoffset:0" />
    <path
       transform="matrix(-0.45559831,0,0,0.45556755,-49.441175,58.028419)"
       d="m 85.52288,125.25614 c -0.123304,-0.035 -0.666009,-12.70234 -0.755311,-12.79427 -0.0893,-0.0919 -12.735574,-1.00219 -12.766945,-1.12645 -0.03137,-0.12427 10.667539,-6.92795 10.702505,-7.05126 0.03496,-0.1233 -5.499866,-11.530422 -5.407933,-11.619723 0.09193,-0.0893 11.333548,5.774386 11.457815,5.743015 0.124267,-0.03137 7.235708,-10.528237 7.359012,-10.493271 0.123304,0.03496 0.666009,12.702339 0.755311,12.794269 0.0893,0.0919 12.735576,1.00219 12.766946,1.12645 0.0314,0.12427 -10.667541,6.92795 -10.702506,7.05126 -0.03497,0.1233 5.499866,11.53042 5.407936,11.61972 -0.0919,0.0893 -11.333551,-5.77438 -11.457818,-5.74301 -0.124267,0.0314 -7.235708,10.52823 -7.359012,10.49327 z"
       inkscape:randomized="0"
       inkscape:rounded="0.01"
       inkscape:flatsided="false"
       sodipodi:arg2="2.3707132"
       sodipodi:arg1="1.8471145"
       sodipodi:r2="8.4342642"
       sodipodi:r1="19.407162"
       sodipodi:cy="106.58516"
       sodipodi:cx="90.817451"
       sodipodi:sides="6"
       id="path8076"
       style="opacity:1;fill:none;stroke:#ff00ff;stroke-width:0.61947495;stroke-linecap:round;stroke-linejoin:miter;stroke-miterlimit:4;stroke-dasharray:none;stroke-dashoffset:0"
       sodipodi:type="star" />
  </g>
  <path
     style="fill:none;stroke:#ff00ff;stroke-width:0.17638887;stroke-linecap:butt;stroke-linejoin:miter;stroke-miterlimit:10;stroke-dasharray:none;stroke-opacity:1"
     d="m 302.55248,71.157288 c -3.65196,0 -6.6375,2.92799 -6.73419,6.55725 -2.57878,-0.86537 -4.98357,-0.39508 -7.02965,1.85815 -0.46214,0.5087 -0.89334,0.67352 -1.53292,0.41176 -3.39725,-1.38994 -3.39968,-1.38461 -5.0789,2.07367 0.54856,0.27764 0.81593,-0.43128 1.30418,-0.0584 -0.22967,0.29316 -0.48342,0.57343 -0.68628,0.88636 -0.28363,0.43637 -0.76386,0.93184 -0.5187,1.41937 0.30621,0.6096 0.93653,-0.22232 1.48334,0.16151 -0.0536,0.63394 -0.53267,1.35103 -0.0204,2.08304 0.38241,-0.26317 0.73301,-0.59414 1.14929,-0.77335 1.15886,-0.49848 2.01222,0.18633 2.86137,0.83509 0.94474,0.72249 -0.03,1.25562 -0.24421,1.78373 -0.47444,1.17165 -1.34676,2.87776 -2.0213,4.25097 l 3.4192,0 c -0.51748,-0.83109 0.49355,-2.52195 1.02416,-3.6303 0.51263,1.14238 1.54017,2.65402 1.28487,3.6303 l 3.73174,0 c -0.0854,-0.0854 -0.17368,-0.16946 -0.26791,-0.24805 -0.78249,-0.49642 -1.80659,-2.71971 -2.37462,-3.78078 2.94745,0.15169 5.49958,-0.12391 8.19655,-0.29325 -0.97745,2.34 -2.04348,3.83586 -2.57801,4.32208 l 4.06961,0 c -0.10871,-0.23765 -0.23337,-0.55527 -0.25134,-0.62507 -0.25753,-0.99518 0.69954,-2.04651 1.37583,-3.14965 0.43426,0.41002 0.74419,2.39251 0.66144,3.77472 l 3.7119,0 c -0.48844,-0.39779 -0.95334,-1.80157 -1.48166,-3.20862 -0.75001,-1.99778 -0.55621,-2.52836 1.83774,-4.30389 1.3155,-0.97543 2.24432,0.0637 3.18657,0.81084 0.44205,-0.66322 0.46449,-1.36437 0.32301,-2.06816 -0.13651,-0.67733 -0.64319,-1.54508 0.79155,-1.02967 0.48014,0.17251 0.45804,-0.31215 0.34727,-0.51429 -0.53235,-0.97014 -0.44413,-2.09356 -0.77114,-3.07357 -0.29789,-0.8922 -1.31465,-1.63815 -2.46448,-2.01635 -0.32975,-3.40799 -3.21146,-6.08541 -6.70391,-6.08541 z m 0,1.39623 c 2.6451,0 4.82453,1.90678 5.25805,4.4246 -0.36308,-0.0109 -0.71591,0.0224 -1.04013,0.10914 -0.97615,0.26105 -1.46705,0.21497 -2.12603,-0.71989 -1.40654,-1.99531 -3.79073,-1.58489 -5.13128,0.94699 -0.64519,1.21929 -1.21692,1.41691 -2.28479,0.97731 -0.01,-0.13124 -0.0198,-0.26257 -0.0198,-0.39633 0,-2.95874 2.38529,-5.34182 5.34402,-5.34182 z"
     id="path8786"
     inkscape:connector-curvature="0" />
  <g
     transform="matrix(0.35277778,0,0,-0.35277776,-36.487364,123.43601)"
     id="g8981"
     style="stroke:#ff00ff">
    <g
       id="g8983"
       clip-path="url(#clipPath8354)"
       style="stroke:#ff00ff">
      <g
         id="g8985"
         transform="translate(1060.4491,95.3823)"
         style="stroke:#ff00ff">
        <path
           d="m -158.252,-8.543 c -3.765,11.104 -9.477,21.912 -16.542,30.05 -1.371,1.58 -3.64,3.332 -2.599,5.537 0.878,1.86 3.543,1.372 5.485,1.507 6.565,0.455 6.979,0.853 7.01,7.395 0.017,3.686 0.034,5.362 1.143,6.13 0.463,2.98 1.349,6.144 3.525,8.201 2.345,4.005 4.873,7.332 4.124,11.744 -0.164,0.965 0.003,2.1 -1.072,2.62 -1.279,0.618 -2.08,-0.242 -3.019,-1.011 -2.769,-2.268 -4.825,-4.805 -5.107,-8.615 -0.166,-2.25 -0.555,-4.726 -3.757,-5.372 -1.45,4.599 -1.021,9.528 -2.89,14.04 -0.671,1.619 0.064,3.489 3.123,2.266 4.159,-1.663 9.957,3.316 9.264,7.784 -0.24,1.551 0.331,2.491 0.866,3.653 2.347,5.092 2.073,12.004 -0.556,14.535 -4.384,4.224 -13.934,5.681 -19.057,2.836 -6.016,-3.342 -9.999,-8.735 -13.744,-14.236 -6.171,-9.067 -12.25,-18.211 -17.477,-27.867 -0.561,-1.036 -1.162,-1.78 -1.884,-2.293 -0.927,-2.806 -1.866,-6.044 -4.066,-7.634 l 0.04,0 c -3.174,-5.7 -5.832,-10.778 -8.796,-15.672 -1.538,-2.54 -1.446,-4.59 0.517,-6.698 2.808,-3.017 2.191,-8.381 7.05,-10.102 0.921,-0.326 0.075,-1.743 -0.167,-2.699 -0.775,-3.06 -1.35,-6.147 -0.433,-9.322 0.614,-2.125 -0.05,-3.312 -1.664,-3.951 l -1.24407,-2.8335247 z"
           style="fill:none;stroke:#ff00ff;stroke-width:0.5;stroke-linecap:butt;stroke-linejoin:miter;stroke-miterlimit:10;stroke-dasharray:none;stroke-opacity:1"
           id="path8987"
           inkscape:connector-curvature="0"
           sodipodi:nodetypes="ccccccccccccccccccccccccccccccc" />
      </g>
    </g>
  </g>
  <g
     id="g8989"
     transform="matrix(0.35277778,0,0,-0.35277776,-28.197396,123.12704)"
     style="stroke:#ff00ff">
    <g
       clip-path="url(#clipPath8354)"
       id="g8991"
       style="stroke:#ff00ff">
      <g
         transform="translate(1060.4491,95.3823)"
         id="g8993"
         style="stroke:#ff00ff">
        <path
           inkscape:connector-curvature="0"
           id="path8995"
           style="fill:none;stroke:#ff00ff;stroke-width:0.5;stroke-linecap:butt;stroke-linejoin:miter;stroke-miterlimit:10;stroke-dasharray:none;stroke-opacity:1"
           d="M -1.246888,-10.640607 C -1.622888,-10.093607 -1.982,-2.62 -1.945,-2.51 c -0.462,0.107 -1.024,0.398 -1.684,0.834 -2.008,1.324 -2.608,3.257 -2.746,5.53 -0.231,3.828 -2.424,6.021 -6.086,6.857 -2.421,0.554 -4.816,1.305 -7.268,1.623 -7.636,0.992 -11.051,5.995 -12.435,12.888 -1.135,5.656 -1.12,11.517 -3.457,17.474 0.253,0 0.5,-10e-4 0.753,-10e-4 -1.406,3.181 -2.867,6.315 -3.448,9.799 -0.039,0.23 0.067,0.41 0.219,0.518 -0.012,0.226 -0.029,0.444 -0.028,0.694 0.055,7.363 -1.124,14.559 -3.025,21.669 -2.024,7.564 -5.822,14.085 -11.106,19.791 -1.12,1.21 -2.181,2.58 -4.033,2.7 -2.707,0.176 -3.592,1.049 -1.907,3.694 1.066,1.672 -0.559,3.481 -1.416,4.453 -2.522,2.861 -3.276,6.397 -4.217,9.741 -1.687,5.985 -5.725,9.589 -11.278,10.717 -5.841,1.186 -10.008,-2.555 -13.302,-7.107 -1.674,-2.313 -2.1,-4.638 -1.162,-7.493 1.119,-3.408 2.703,-6.829 1.611,-10.657 -0.316,-1.11 0.21,-1.857 1.46,-2.665 2.084,-1.349 4.061,-3.343 3.411,-6.327 -0.449,-2.056 0.652,-3.123 2.112,-4.053 1.698,-1.082 3.044,-0.349 4.52,0.715 1.324,0.955 2.291,3.589 4.421,2.073 2.154,-1.534 0.126,-3.225 -0.519,-4.799 -0.124,-0.303 -0.152,-0.645 -0.224,-0.97 -0.48,-2.167 0.998,-5.555 -1.306,-6.303 -2.684,-0.871 -4.136,2.694 -6.27,4.115 -4.45,2.964 -6.891,8.072 -11.84,10.614 -3.483,1.788 -5.124,1.304 -5.537,-2.679 -0.467,-4.509 1.706,-7.817 5.266,-10.014 2.499,-1.543 3.294,-3.152 2.996,-6.06 -0.748,-7.286 -1.211,-14.606 -1.574,-21.923 -0.094,-1.883 -0.311,-2.946 -1.843,-3.289 -0.853,-2.544 -1.249,-4.858 0.405,-7.177 0.795,-0.315 1.525,-0.934 2.137,-2.125 0.946,-1.839 3.753,-1.009 5.555,-0.319 4.477,1.713 5.907,-0.181 5.542,-4.337 -1.195,-13.613 -1.384,-27.25 -0.946,-40.896 0.01,-0.348 -0.478,-1.576 -0.851,-2.499 -0.308,-0.052 -0.377623,-2.882176 -0.684623,-2.940176 z"
           sodipodi:nodetypes="ccccccccccccccccccccccccccccccccccccccccccccc" />
      </g>
    </g>
  </g>
  <path
     sodipodi:nodetypes="csssssscscssscssscscsssssssssscssssscssssscscsssssssssscssccssscscsscsccc"
     inkscape:connector-curvature="0"
     id="path9026"
     d="m 328.75315,92.894708 c 0.14908,-0.20374 1.25604,-2.34851 2.45993,-4.7661 1.20391,-2.41761 2.29839,-4.39566 2.43224,-4.39566 0.40039,0 0.44649,3.91303 0.0645,5.47478 -0.19529,0.79839 -0.63114,1.70883 -0.96855,2.02318 -0.3374,0.31434 -0.61347,0.83451 -0.61347,1.15595 0,0.49396 0.20756,0.5844 1.34105,0.5844 1.05444,0 1.34104,-0.10641 1.34104,-0.49805 0,-0.27392 0.21874,-0.73974 0.48607,-1.03515 0.38123,-0.42124 0.53293,-1.51912 0.70327,-5.08964 l 0.2172,-4.55253 -1.15028,-1.95498 c -0.63267,-1.07523 -1.15029,-2.18912 -1.15029,-2.4753 0,-0.52794 1.1032,-2.86568 2.45102,-5.1939 l 0.74095,-1.27988 -0.14421,3.44624 c -0.11659,2.78765 -0.0468,3.70141 0.36574,4.78152 0.58768,1.53883 0.94218,1.67064 1.38716,0.51572 0.2263,-0.5873 0.2152,-1.44954 -0.0393,-3.04296 -0.19521,-1.22287 -0.33684,-3.51195 -0.31475,-5.08684 0.0397,-2.82656 0.0271,-2.88042 -0.97523,-4.1838 -0.55847,-0.72619 -1.79241,-1.78665 -2.7421,-2.35656 -2.39814,-1.43913 -4.51545,-1.54529 -8.93587,-0.44807 -5.84936,1.4519 -11.25487,1.30558 -15.12694,-0.40947 -0.68882,-0.30511 -1.68825,-0.74062 -2.22095,-0.96779 -0.53269,-0.22719 -0.96853,-0.51443 -0.96853,-0.63833 0,-0.12383 -0.13975,-0.22525 -0.31059,-0.22525 -0.17082,0 -0.47256,-0.14207 -0.67052,-0.31569 -0.19795,-0.17362 -0.79577,-0.57396 -1.32847,-0.88965 -0.88965,-0.52722 -0.96853,-0.69689 -0.96853,-2.0832 0,-1.9645 -0.66046,-3.26768 -1.65605,-3.26768 -0.85876,0 -1.15324,0.54936 -1.15812,2.16056 -0.002,0.70423 -0.14365,1.11755 -0.38266,1.11755 -0.20861,0 -0.37928,0.13975 -0.37928,0.31056 0,0.41816 -2.50059,-1.02817 -4.22561,-2.44407 -2.21678,-1.81953 -2.90683,-1.39551 -1.77463,1.09047 0.49317,1.08285 1.91179,2.54492 3.61894,3.72977 l 0.65076,0.45164 -0.78241,1.47153 c -0.43033,0.80933 -0.69992,1.67892 -0.59909,1.93242 0.59626,1.49912 1.01888,4.6019 0.76509,5.6173 -0.69331,2.77402 -0.7165,2.62477 0.56577,3.64035 1.13833,0.90159 1.23353,0.92544 1.91395,0.47961 0.39383,-0.25805 0.80884,-0.77449 0.92224,-1.14765 0.11341,-0.37314 0.54053,-1.12452 0.94915,-1.66973 l 0.74294,-0.99126 1.01053,1.10322 c 0.55579,0.60678 1.01052,1.3589 1.01052,1.67138 0,0.93366 0.86663,2.72391 1.78051,3.67808 0.64496,0.67341 0.97217,1.46089 1.32594,3.19104 0.25831,1.26336 0.46967,2.62156 0.46967,3.01821 0,0.39667 0.19385,1.18515 0.43078,1.7522 0.66317,1.58719 0.62037,3.47775 -0.11177,4.93714 -0.35213,0.70191 -0.56004,1.40597 -0.46202,1.56456 0.098,0.15859 0.94266,0.28835 1.877,0.28835 1.38732,0 1.76842,-0.11149 2.07857,-0.60813 0.20889,-0.33449 0.29477,-0.74573 0.19085,-0.91387 -0.10385,-0.16814 0.0439,-0.47586 0.32817,-0.68384 0.48235,-0.35269 0.48534,-0.47655 0.0445,-1.84273 -0.41662,-1.29104 -0.49486,-2.43463 -0.55521,-8.11468 -0.004,-0.37943 0.0448,-0.74193 0.10829,-0.80555 0.0636,-0.0635 0.83137,0.0941 1.7061,0.35054 1.12546,0.32992 2.43774,0.43218 4.48855,0.34983 3.23253,-0.12986 4.45425,-0.60043 7.6088,-2.93083 0.92638,-0.68437 1.71739,-1.19885 1.75778,-1.14329 0.38036,0.52319 1.40716,3.53285 1.83509,5.37889 l 0.53265,2.29778 -0.80129,2.02338 c -0.75096,1.89626 -1.5632,3.28985 -3.33464,5.72139 -0.40708,0.55876 -0.70561,1.04299 -0.6634,1.07606 0.0422,0.0331 0.63105,0.14491 1.30851,0.24855 0.82974,0.12691 1.32021,0.0675 1.50279,-0.18204 z"
     style="fill:none;stroke:#ff00ff;stroke-width:0.12502444;stroke-miterlimit:4;stroke-dasharray:none" />
  <path
     style="fill:none;stroke:#ff00ff;stroke-width:0.12502444;stroke-miterlimit:4;stroke-dasharray:none"
     d="m 286.27747,93.472098 c 0.16788,-0.0705 0.24202,-1.99848 0.2003,-5.20541 -0.0593,-4.54977 -0.021,-5.07611 0.35506,-4.93171 0.23171,0.0889 0.47139,0.16166 0.53276,0.16166 0.0612,0 0.11148,0.57059 0.11148,1.26796 0,0.69738 0.13,1.68702 0.28895,2.1992 0.15895,0.51217 0.32539,2.07081 0.36992,3.46363 0.0444,1.39282 0.0944,2.62961 0.11089,2.74842 0.0162,0.11881 0.47978,0.17879 1.02957,0.13328 l 0.9996,-0.0827 -0.0915,-3.19883 c -0.10321,-3.60563 0.85648,-5.72726 1.20122,-8.34011 l 0.6675,-1.6759 -0.45005,-2.67986 c -0.35356,-2.10575 -0.38748,-2.91741 -0.15817,-3.78875 0.16051,-0.6099 0.32299,-1.57065 0.36111,-2.13502 0.0631,-0.93274 0.16416,-1.05855 1.11138,-1.38265 1.19338,-0.40833 2.17056,-1.26939 1.9132,-1.68584 -0.26222,-0.42431 -1.89546,-0.65697 -2.46646,-0.35136 -0.38287,0.2049 -0.74949,0.11703 -1.56084,-0.37408 -1.24863,-0.75575 -2.23199,-0.81283 -3.40619,-0.1977 -0.46923,0.2458 -1.18678,0.42354 -1.59458,0.39497 -0.90778,-0.0636 -1.79093,0.37639 -1.79093,0.89221 0,0.21037 0.3701,0.65599 0.82255,0.99025 0.76957,0.56866 0.81351,0.69188 0.68213,1.91514 -0.0772,0.71905 -0.2974,1.41687 -0.48931,1.5507 -1.08658,0.75767 -2.23422,1.00793 -4.67215,1.01887 -3.74519,0.0168 -5.17908,0.63051 -6.2011,2.65399 -0.46462,0.91995 -1.338,4.71645 -1.338,5.81626 0,0.31073 -0.23626,1.0185 -0.52503,1.57281 -0.61734,1.18502 -1.005,3.72463 -0.96772,6.33921 0.0264,1.84957 0.0336,1.86676 0.79211,1.95346 1.03185,0.11792 1.26559,-0.18766 1.34591,-1.75979 0.0743,-1.45546 0.8485,-3.14762 2.64974,-5.79161 1.3582,-1.99376 1.67801,-1.37608 0.36531,0.7056 -0.93374,1.48072 -2.24992,6.01463 -1.96301,6.76224 0.0932,0.24289 0.50262,0.39594 1.05918,0.39594 0.85918,0 0.91677,-0.0592 1.08585,-1.11646 0.25017,-1.56469 1.32434,-3.58371 2.67444,-5.02709 0.6316,-0.67522 1.23113,-1.48844 1.33224,-1.80716 0.15518,-0.48884 0.38395,-0.57949 1.46261,-0.57949 l 1.2786,0 0.171,1.2474 c 0.094,0.68606 0.36644,1.86751 0.60534,2.62544 0.32779,1.03969 0.37262,1.63338 0.18281,2.41793 -0.15613,0.64532 -0.15745,1.41914 -0.006,2.0395 0.21031,0.84763 0.35457,0.99643 0.94866,0.97859 0.38538,-0.0116 0.82063,-0.0715 0.96723,-0.13311 z"
     id="path9028"
     inkscape:connector-curvature="0"
     sodipodi:nodetypes="cccsssccsccsccscsccccsscccscssscccscscscscccscccc" />
  <path
     sodipodi:nodetypes="ccsccscccsscsccccccssccccsscsscscsccsssscccscccssscccsccccccccscccssscsccccssscccccccscccscsssscssccssccsccccsscsccccsscccccccccccscccccssscccscsscssssscccc"
     inkscape:connector-curvature="0"
     id="path9030"
     d="m 299.8802,160.43507 c -0.32792,-0.22914 -0.34852,-0.40654 -0.30704,-2.64499 0.0242,-1.31965 0.0922,-2.66186 0.15053,-2.98268 0.0583,-0.32083 0.13838,-1.45254 0.17786,-2.51491 0.0395,-1.06238 0.18223,-2.55227 0.3172,-3.31087 0.13494,-0.7586 0.21062,-1.46958 0.16817,-1.57996 -0.0425,-0.11038 0.13227,-1.01166 0.38827,-2.00284 0.25599,-0.99119 0.49729,-2.06125 0.53618,-2.37791 0.0391,-0.31667 0.37803,-1.39185 0.7536,-2.38929 0.37553,-0.99745 0.6386,-1.92848 0.58454,-2.06897 -0.12563,-0.32661 1.41456,-3.10494 2.58528,-4.66357 0.4953,-0.6594 1.23569,-1.43457 1.64526,-1.72259 1.06796,-0.75098 0.78339,-0.77955 -0.52023,-0.0522 -1.95567,1.09107 -3.69295,2.90447 -4.99884,5.21782 l -0.58141,1.02999 -0.23704,-0.57952 c -0.38468,-0.94057 -0.46501,-2.15828 -0.17993,-2.72837 0.21878,-0.43749 0.21925,-0.53535 0.004,-0.73629 -0.4541,-0.42319 0.0559,-2.40483 0.65943,-2.56229 0.37092,-0.0968 0.46044,-0.3295 0.16461,-0.42789 -0.0996,-0.0331 0.0865,-0.31894 0.4136,-0.63519 0.40926,-0.39573 0.81861,-0.60496 1.31312,-0.67113 0.55663,-0.0745 0.67711,-0.14594 0.53466,-0.31713 -0.14017,-0.16852 -0.0336,-0.27039 0.44816,-0.42907 0.60881,-0.20045 1.16935,-0.16821 1.90474,0.10956 0.309,0.11673 0.32111,0.0988 0.1091,-0.16129 -0.20874,-0.25602 -0.19588,-0.29264 0.10276,-0.29264 0.18775,0 0.72174,0.11421 1.18667,0.25381 0.46493,0.13959 0.87032,0.22888 0.90085,0.19842 0.0711,-0.0709 -2.33218,-1.14599 -2.56171,-1.14599 -0.0948,0 -0.1723,-0.12234 -0.1723,-0.27185 0,-0.19615 -0.10042,-0.24006 -0.36052,-0.1577 -0.1983,0.0628 -0.59072,0.019 -0.87208,-0.0972 -0.40571,-0.16764 -0.47064,-0.26062 -0.31369,-0.44924 0.16257,-0.19545 0.10487,-0.2193 -0.32366,-0.1338 -0.63684,0.12707 -1.28603,-0.18008 -1.14664,-0.54248 0.0721,-0.18756 0.0195,-0.22868 -0.19052,-0.14835 -0.21003,0.0804 -0.64806,-0.26232 -1.58405,-1.23948 -0.71154,-0.74285 -1.2937,-1.37734 -1.2937,-1.40999 0,-0.0326 0.20209,-0.0594 0.44914,-0.0594 0.247,0 1.03527,-0.23415 1.75166,-0.52033 1.85877,-0.74252 2.64548,-0.69568 2.99509,0.17834 l 0.17152,0.42871 0.0109,-0.47697 c 0.006,-0.26232 0.0527,-0.47696 0.1037,-0.47696 0.38401,0 1.89219,0.97777 2.1431,1.3894 0.22418,0.36776 0.36373,0.45734 0.50023,0.32117 0.24403,-0.24346 1.72367,1.19729 1.88398,1.83448 0.0614,0.24426 0.1861,0.44411 0.27698,0.44411 0.0909,0 0.11692,-0.0781 0.0578,-0.17344 -0.0591,-0.0954 -0.0156,-0.17344 0.0967,-0.17344 0.13552,0 0.10973,-0.14369 -0.0767,-0.4275 -0.3674,-0.5594 -0.37709,-1.20746 -0.016,-1.06922 0.21366,0.0818 0.23043,0.0373 0.0869,-0.2302 -0.0978,-0.18237 -0.1779,-0.61944 -0.1779,-0.97127 0,-0.58427 0.0262,-0.61906 0.30423,-0.40164 0.273,0.21357 0.28078,0.20808 0.0758,-0.0533 -0.18525,-0.23623 -0.18865,-0.49871 -0.018,-1.38754 0.11574,-0.60291 0.23164,-1.12223 0.25748,-1.15405 0.0258,-0.0318 0.42513,0.10877 0.88724,0.31241 0.93462,0.41184 1.86612,1.22483 2.25724,1.97005 0.23004,0.43832 0.22715,0.53599 -0.027,0.92326 -0.27628,0.42065 -0.27409,0.42756 0.0756,0.24084 0.34352,-0.1834 0.36005,-0.14919 0.36005,0.74441 0,0.68437 -0.0969,1.05949 -0.35962,1.39276 -0.28914,0.3667 -0.30329,0.43454 -0.0722,0.34607 0.22054,-0.0844 0.16203,0.13787 -0.25134,0.95481 -0.29634,0.58567 -0.49108,1.06485 -0.43276,1.06485 0.0583,0 0.31373,-0.1459 0.56754,-0.32424 0.49221,-0.34584 1.8588,-1.06329 2.02532,-1.06329 0.055,0 0.0137,0.16062 -0.0915,0.35694 -0.17778,0.3314 -0.14401,0.32635 0.47196,-0.0705 0.48795,-0.3144 0.81411,-0.40345 1.23287,-0.33662 0.45023,0.0718 0.52915,0.13926 0.37705,0.32208 -0.15588,0.1874 -0.0808,0.21315 0.39641,0.1359 1.07241,-0.17362 2.04319,1.05228 2.04631,2.5841 0,0.47501 -0.22851,0.63468 -0.43443,0.30229 -0.20905,-0.33745 -1.19425,-0.73126 -2.15655,-0.86203 -1.29416,-0.17587 -1.53734,-0.0571 -0.84046,0.41062 0.39027,0.26191 0.59693,0.56333 0.67132,0.9792 0.0633,0.35359 0.11696,0.44445 0.1304,0.22081 0.0379,-0.63098 0.32167,-0.61477 0.82787,0.0473 0.33511,0.43831 0.4745,0.81789 0.462,1.25792 -0.0164,0.57587 0.004,0.60206 0.22136,0.30378 0.22722,-0.31006 0.24962,-0.30123 0.44683,0.17623 0.30774,0.74522 0.39554,2.88142 0.15014,3.65348 -0.28125,0.88477 -0.89909,2.13913 -1.05365,2.13913 -0.0681,0 -0.17446,-0.27002 -0.23653,-0.60003 -0.20182,-1.07324 -1.48312,-3.36134 -2.48959,-4.44591 -0.82325,-0.88709 -2.54818,-2.05297 -2.74578,-1.85586 -0.0328,0.0326 0.39465,0.42163 0.94952,0.86459 1.4223,1.13542 3.07229,3.66385 2.16405,3.31615 -0.15592,-0.0597 0.0788,0.25289 0.52157,0.69465 0.4428,0.44176 0.80512,0.96134 0.80512,1.15464 0,0.4224 -0.044,0.42736 -0.71584,0.0807 -0.78354,-0.40422 -1.0062,-0.20307 -0.26084,0.23565 0.66197,0.38966 1.31308,1.49223 1.32055,2.23619 0.005,0.49038 -0.24564,0.64085 -0.51934,0.31185 -0.11817,-0.14203 -0.29911,-0.25825 -0.40215,-0.25825 -0.12208,0 -0.11465,0.0725 0.0211,0.20813 0.38381,0.38294 0.20744,1.08303 -0.57747,2.29181 -0.42822,0.65952 -0.77861,1.30343 -0.77861,1.4309 0,0.12747 -0.0242,0.23177 -0.0536,0.23177 -0.0297,0 -0.61628,-0.53732 -1.3039,-1.19403 -1.29143,-1.23335 -1.44216,-1.57742 -0.97961,-2.23622 0.31103,-0.44302 0.14466,-0.50012 -0.38296,-0.13143 -0.66983,0.46805 -0.83608,-0.39664 -0.2051,-1.06671 0.37779,-0.40119 0.22249,-0.58422 -0.16648,-0.19619 -0.28121,0.28054 -0.39816,0.11898 -0.50863,-0.70242 -0.075,-0.55782 0.004,-0.86768 0.38788,-1.53193 0.47779,-0.8256 0.47822,-0.82936 0.0539,-0.44244 -0.23535,0.21464 -0.47383,0.39025 -0.53001,0.39025 -0.0562,0 -0.15709,-0.47263 -0.22429,-1.0503 -0.0981,-0.8428 -0.0671,-1.11106 0.15679,-1.35783 0.35047,-0.38635 0.35891,-0.6081 0.018,-0.47766 -0.20209,0.0774 -0.26307,-0.0454 -0.27081,-0.54513 -0.0117,-0.7607 -0.2886,-2.20396 -0.31772,-1.65671 -0.0109,0.20669 -0.10695,0.40472 -0.21327,0.44007 -0.13454,0.0447 -0.10808,0.31467 0.0869,0.88773 0.39304,1.15497 0.3724,1.56959 -0.0724,1.45355 l -0.35262,-0.092 0.35262,0.56921 c 0.43843,0.70772 0.47603,1.34511 0.0702,1.18974 -0.25432,-0.0974 -0.25295,-0.0633 0.0133,0.3423 0.32166,0.48978 0.30012,1.27616 -0.0332,1.20968 -0.12164,-0.0243 -0.16421,0.0698 -0.10327,0.22823 0.0629,0.1634 -0.10042,0.48696 -0.41462,0.82177 -0.80215,0.85475 -1.09164,1.36363 -1.10075,1.93502 -0.008,0.48123 -0.0522,0.44031 -0.53333,-0.48993 -0.28875,-0.55827 -0.47967,-1.13281 -0.42432,-1.27676 0.0684,-0.17775 0.0203,-0.23103 -0.14936,-0.16602 -0.13751,0.0526 -0.33921,-0.0115 -0.44823,-0.14252 -0.15147,-0.1821 -0.12528,-0.34927 0.11117,-0.7093 0.30716,-0.46763 0.30669,-0.4696 -0.0638,-0.27177 -0.48197,0.25731 -0.51199,0.25329 -0.64247,-0.086 -0.0624,-0.16217 0.0235,-0.43695 0.19869,-0.63686 0.16964,-0.19338 0.21065,-0.29456 0.0911,-0.22484 -0.15874,0.0926 -0.21729,-0.0594 -0.21729,-0.56392 0,-0.49726 0.13138,-0.84649 0.46915,-1.24696 0.44342,-0.52574 0.44819,-0.54962 0.0869,-0.43522 -0.42936,0.13595 -0.44956,0.0693 -0.22054,-0.72734 0.22605,-0.78624 0.0195,-0.70094 -0.63336,0.26164 -0.70888,1.04506 -1.39959,2.60977 -1.63459,3.70295 -0.10875,0.50579 -0.2773,0.84957 -0.4165,0.84957 -0.23399,0 -0.2823,0.27358 -0.52833,2.99187 -0.0907,1.00224 -0.15401,1.17073 -0.43983,1.17073 -0.31056,0 -0.33386,0.14421 -0.33386,2.06892 0,1.65962 -0.0546,2.12345 -0.27636,2.34462 -0.23782,0.23727 -0.25896,0.58962 -0.15155,2.5273 0.11176,2.01563 0.0952,2.25159 -0.15827,2.25159 -0.3348,0 -0.33421,-0.0135 -0.10015,2.26199 0.12802,1.24447 0.12802,1.83322 0,1.96093 -0.10061,0.10037 -0.18293,0.82588 -0.18293,1.61223 0,1.28083 -0.0402,1.45785 -0.3864,1.69973 -0.48236,0.33708 -1.68087,0.35068 -2.14783,0.0244 z"
     style="fill:none;stroke:#ff00ff;stroke-width:0.19755556;stroke-miterlimit:4;stroke-dasharray:none" />
  <path
     style="fill:none;stroke:#ff00ff;stroke-width:0.28222221"
     d="m 261.25561,20.004517 c -0.0273,8.53e-4 -0.0438,0.0056 -0.049,0.01378 -0.042,0.06535 -0.14807,1.065409 -0.23537,2.2225 -0.1288,1.705839 -0.0649,2.197763 0.33789,2.601183 0.44575,0.446382 0.43244,0.458718 -0.13174,0.11686 -0.57461,-0.34798 -0.61694,-0.277374 -0.48893,0.819655 0.0771,0.660611 0.32474,1.464166 0.55012,1.785385 0.33055,0.471272 0.30819,0.558177 -0.11466,0.450895 -0.71463,-0.181358 -0.55424,1.03349 0.26459,2.004218 0.4154,0.49252 0.49608,0.756635 0.23922,0.786034 -0.21292,0.02433 -0.27842,0.180405 -0.14552,0.346716 0.13289,0.166299 0.10059,0.318293 -0.0717,0.337893 -0.17226,0.01969 -0.45182,-0.328585 -0.62178,-0.773907 -0.44338,-1.161669 -3.56342,-3.546113 -3.9726,-3.036092 -0.22888,0.28525 -0.51322,0.147489 -1.01865,-0.49444 -0.5657,-0.718529 -3.63783,-2.227977 -4.36562,-2.144778 -0.0971,0.01104 -0.13836,0.424504 -0.0921,0.918323 l 0.0832,0.897932 -0.41892,-0.767845 c -0.85404,-1.565348 -2.35535,-1.483207 -5.71555,0.313642 -1.29504,0.692551 -2.73772,1.30304 -3.20587,1.356541 -0.46821,0.05352 -0.84484,0.147712 -0.83785,0.208912 0.007,0.0613 1.24922,1.126298 2.76049,2.366915 1.98794,1.631973 2.89325,2.180847 3.27367,1.984375 0.37998,-0.196328 0.48917,-0.130776 0.39357,0.237025 -0.1848,0.710669 1.11281,1.147137 2.29195,0.770599 0.79344,-0.253382 0.90802,-0.221361 0.64272,0.180797 -0.25613,0.388171 -0.11275,0.54866 0.69288,0.775561 0.55871,0.15766 1.31196,0.154765 1.67404,-0.0061 0.47491,-0.211018 0.67468,-0.149987 0.71768,0.218282 0.0327,0.28074 0.20683,0.493443 0.3864,0.472942 0.43503,-0.04972 5.22507,1.448373 5.10591,1.596873 -0.0512,0.06381 -0.83894,-0.01612 -1.75066,-0.177493 -0.91172,-0.161369 -1.9488,-0.260085 -2.30464,-0.219382 -0.56598,0.06469 -0.58232,0.13611 -0.13063,0.57161 0.45877,0.442349 0.43976,0.478527 -0.17143,0.326319 -1.45456,-0.36228 -2.5242,-0.301013 -3.63416,0.207256 -0.87834,0.402279 -1.05775,0.616299 -0.75517,0.90234 0.30745,0.29059 0.095,0.451189 -0.94368,0.711618 -0.92274,0.231391 -1.65313,0.712805 -2.34211,1.544506 -0.55065,0.66465 -0.84039,1.241727 -0.64437,1.282127 0.58221,0.12065 0.4635,0.576899 -0.21828,0.838948 -1.10929,0.426381 -1.64178,4.257553 -0.68847,4.953773 0.45229,0.330609 0.47262,0.514708 0.15379,1.383549 -0.41543,1.132171 0.004,3.40117 0.93872,5.083857 l 0.57602,1.036837 0.87643,-2.059892 c 1.96829,-4.626508 4.86358,-8.407594 8.33107,-10.879886 2.31139,-1.64809 2.85669,-1.656292 0.99715,-0.01488 -0.71317,0.62952 -1.94637,2.245196 -2.74065,3.590615 -1.87742,3.18013 -4.18799,8.730591 -3.87835,9.31664 0.13323,0.252061 -0.16159,2.057024 -0.65484,4.011193 -0.49332,1.95418 -0.89955,4.046451 -0.90455,4.649501 -0.004,0.60299 -0.22746,2.66462 -0.49554,4.581149 -0.26808,1.916531 -0.40172,3.646658 -0.2971,3.844727 0.1047,0.19803 0.11716,1.54942 0.0276,3.003022 -0.0896,1.453608 -0.0338,4.281655 0.12402,6.284956 0.15794,2.003278 0.25362,4.145816 0.21332,4.760846 -0.0403,0.615018 0.1251,3.149817 0.36821,5.632867 0.21931,2.243759 0.3442,3.38035 0.51429,4.011746 l 5.04637,0 c 0.26544,-0.432215 0.23867,-1.065002 0.0248,-2.898292 -0.1718,-1.476479 -0.17477,-2.85671 -0.006,-3.06696 0.21466,-0.267521 0.0858,-1.373228 -0.4294,-3.682119 -0.942,-4.221869 -0.9399,-4.196009 -0.30538,-4.26861 0.48036,-0.05491 0.4598,-0.501617 -0.19347,-4.261996 -0.62802,-3.614939 -0.66499,-4.280924 -0.26624,-4.777934 0.37172,-0.46331 0.37398,-1.345926 0.0105,-4.462086 -0.42155,-3.613841 -0.40944,-3.889874 0.17915,-3.957175 0.54166,-0.06192 0.62482,-0.392157 0.57712,-2.293606 -0.12911,-5.15723 -0.0973,-5.681387 0.34616,-5.732088 0.26382,-0.03016 0.50829,-0.711824 0.60359,-1.685064 0.20596,-2.103481 1.17184,-5.191119 2.28644,-7.306911 1.02667,-1.948809 1.39944,-2.153615 1.14322,-0.628385 -0.25956,1.545492 -0.20682,1.666246 0.57712,1.317955 0.65956,-0.293059 0.6558,-0.247568 -0.0695,0.835643 -0.55244,0.8251 -0.72466,1.509347 -0.61571,2.442986 0.11052,0.947259 0.25467,1.220312 0.53523,1.012032 0.21128,-0.1568 0.15571,0.04166 -0.12347,0.441523 -0.28837,0.413309 -0.39077,0.948151 -0.23703,1.239133 0.32161,0.608818 0.37929,0.609597 1.23638,0.02205 0.65891,-0.451719 0.66051,-0.447926 0.1808,0.496646 -0.36933,0.727208 -0.38261,1.046909 -0.0557,1.355988 0.23534,0.222521 0.63174,0.298955 0.88084,0.170327 0.30683,-0.158821 0.40975,-0.06907 0.31915,0.279464 -0.0734,0.28229 0.4147,1.319525 1.08424,2.305183 1.1151,1.6424 1.20837,1.709485 1.11786,0.804223 -0.10786,-1.074821 0.32943,-2.092525 1.66247,-3.871185 0.52211,-0.6967 0.76071,-1.34007 0.60579,-1.633248 -0.15019,-0.284221 -0.0904,-0.470197 0.14552,-0.450896 0.64633,0.0526 0.51516,-1.428253 -0.20175,-2.278173 -0.59344,-0.703738 -0.60363,-0.767639 -0.10032,-0.639959 0.80316,0.20381 0.59237,-0.984792 -0.39357,-2.218642 l -0.79319,-0.992189 0.68846,0.09591 c 0.86844,0.121519 0.81708,-0.661033 -0.18079,-2.744501 -0.49513,-1.033701 -0.60459,-1.535035 -0.3594,-1.648136 0.19377,-0.08943 0.33223,-0.482123 0.30813,-0.872571 -0.0647,-1.033831 0.77582,1.616405 0.96463,3.042155 0.12412,0.936791 0.26672,1.153656 0.63279,0.964627 0.61754,-0.31879 0.65017,0.09934 0.0706,0.900686 -0.37017,0.51185 -0.37046,1.022316 0,2.583544 0.25389,1.070071 0.54895,1.936242 0.65539,1.923742 0.10647,-0.01217 0.51983,-0.393787 0.91888,-0.84777 0.7197,-0.818399 0.71975,-0.811403 -0.005,0.842259 -0.58241,1.330401 -0.6639,1.929426 -0.39963,2.960575 0.38927,1.51833 0.64637,1.796497 1.11786,1.208817 0.65223,-0.812839 0.98699,-0.502747 0.35884,0.332382 -1.04909,1.39483 -0.54466,2.981867 0.62232,1.957916 0.91923,-0.806548 1.24706,-0.734926 0.75462,0.164262 -0.73234,1.337192 -0.37175,1.950398 2.34597,3.986389 1.44705,1.084111 2.67653,1.96557 2.73293,1.95957 0.0559,-0.0064 0.0786,-0.207696 0.0507,-0.447034 -0.0279,-0.23935 0.49538,-1.524195 1.16251,-2.855296 1.22284,-2.43967 1.40385,-3.792603 0.59256,-4.428464 -0.28711,-0.225188 -0.31736,-0.359351 -0.086,-0.385849 0.19528,-0.02233 0.56404,0.156335 0.8191,0.397426 0.59079,0.55843 1.03226,0.22184 0.91557,-0.69784 -0.17711,-1.395258 -1.65259,-3.324304 -2.99255,-3.912525 -1.50872,-0.662288 -1.13037,-1.08808 0.44318,-0.498851 1.34929,0.50524 1.4314,0.486075 1.33891,-0.307026 -0.0423,-0.362938 -0.84282,-1.259662 -1.77878,-1.993195 -0.93599,-0.733509 -1.44961,-1.270126 -1.14101,-1.191725 1.79748,0.456088 -1.88327,-3.933684 -4.82755,-5.757443 -1.14863,-0.71151 -2.04388,-1.349527 -1.98878,-1.417726 0.33131,-0.412911 3.8557,1.40276 5.61027,2.89002 2.14505,1.818372 5.07428,5.836555 5.69185,7.807965 0.18992,0.606199 0.45088,1.089821 0.57987,1.075422 0.29291,-0.03348 1.18929,-2.522178 1.52853,-4.24436 0.296,-1.502788 -0.33832,-5.494762 -1.0848,-6.82735 -0.47833,-0.853762 -0.52252,-0.865677 -0.88525,-0.234267 -0.34699,0.607159 -0.39117,0.562249 -0.48617,-0.522551 -0.0727,-0.828932 -0.42037,-1.511266 -1.15149,-2.261639 -1.10439,-1.133587 -1.64563,-1.10254 -1.57923,0.0904 0.0235,0.422808 -0.0981,0.263818 -0.29545,-0.386402 -0.23209,-0.764732 -0.68962,-1.286115 -1.48663,-1.693333 -1.42321,-0.727151 -0.98866,-1.002953 1.50261,-0.953053 1.85243,0.03708 3.80622,0.56318 4.27633,1.151489 0.46307,0.579509 0.86084,0.230432 0.75682,-0.661458 -0.34143,-2.8755 -2.44945,-4.966919 -4.4439,-4.408619 -0.88749,0.248449 -1.03547,0.216417 -0.78107,-0.169223 0.24822,-0.376219 0.0836,-0.485803 -0.78548,-0.523104 -0.8083,-0.03474 -1.40682,0.203013 -2.26274,0.899033 -1.08049,0.878619 -1.14353,0.895567 -0.87919,0.234817 0.1564,-0.39138 0.19957,-0.702522 0.0954,-0.690121 -0.3156,0.03607 -2.7484,1.679279 -3.6055,2.435267 -0.44197,0.389822 -0.89377,0.718865 -1.00431,0.731464 -0.11052,0.01263 0.15313,-0.929115 0.58649,-2.092963 0.60449,-1.623461 0.66683,-2.053423 0.26734,-1.847124 -0.41864,0.21617 -0.4065,0.08586 0.0612,-0.665317 0.42499,-0.682678 0.52642,-1.408246 0.37648,-2.693238 -0.19572,-1.677847 -0.23469,-1.738387 -0.84557,-1.319609 -0.62185,0.426342 -0.62717,0.413659 -0.19568,-0.43601 0.39674,-0.782199 0.3804,-0.965914 -0.15158,-1.739085 -0.90452,-1.314489 -2.84806,-2.639477 -4.70959,-3.210277 -0.80537,-0.246959 -1.50908,-0.413871 -1.7005,-0.407899 z"
     id="path4178"
     inkscape:connector-curvature="0" />
  <g
     id="g6237"
     transform="matrix(0.99948466,-0.03210028,0.03210029,0.99948465,198.05998,13.948945)"
     style="stroke-width:0.28222221;stroke-miterlimit:4.42857122;stroke-dasharray:none">
    <path
       style="opacity:1;fill:none;stroke:#000000;stroke-width:1;stroke-linecap:round;stroke-linejoin:miter;stroke-miterlimit:4.42857122;stroke-dasharray:none;stroke-dashoffset:0"
       d="m -340.55469,311.50781 c -0.4369,0.1239 -2.35936,45.00824 -2.67578,45.33399 -0.31642,0.32574 -45.12712,3.54992 -45.23828,3.99023 -0.11116,0.44032 37.79993,24.54747 37.92383,24.98438 0.12389,0.4369 -19.48786,40.8574 -19.16211,41.17382 0.32574,0.31643 40.15734,-20.46076 40.59765,-20.34961 0.44032,0.11116 25.63927,37.30359 26.07618,37.17969 0.4369,-0.12389 2.35936,-45.00824 2.67578,-45.33398 0.31642,-0.32575 45.12517,-3.54992 45.23633,-3.99024 0.0661,-0.26179 -12.9288,-8.65015 -23.81055,-15.69531 52.35605,-4.03047 93.50983,23.66369 121.4375,68.51172 0.85468,-10.28289 -0.92942,-27.13312 -6.02344,-37.10742 0,0 10.5715,2.15865 24.2832,11.12109 -3.27264,-13.0979 -10.05703,-23.67187 -15.8125,-28.70117 8.09221,-1.67226 11.81841,-1.97135 22.78321,-0.23828 -11.06534,-17.56957 -61.41163,-60.13841 -154.01758,-37.4043 5.62771,-11.84665 12.59862,-26.45198 12.40039,-26.64453 -0.32575,-0.31642 -40.15734,20.46077 -40.59766,20.34961 -0.44031,-0.11116 -25.63926,-37.30358 -26.07617,-37.17969 z"
       transform="scale(0.28222222,0.2822222)"
       id="path6239"
       inkscape:connector-curvature="0"
       sodipodi:nodetypes="ccscccccccccccccssc" />
    <path
       sodipodi:type="star"
       style="opacity:1;fill:none;stroke:#000000;stroke-width:0.61947495;stroke-linecap:round;stroke-linejoin:miter;stroke-miterlimit:4.42857122;stroke-dasharray:none;stroke-dashoffset:0"
       id="path6241"
       sodipodi:sides="6"
       sodipodi:cx="90.817451"
       sodipodi:cy="106.58516"
       sodipodi:r1="19.407162"
       sodipodi:r2="8.4342642"
       sodipodi:arg1="1.8471145"
       sodipodi:arg2="2.3707132"
       inkscape:flatsided="false"
       inkscape:rounded="0.01"
       inkscape:randomized="0"
       d="m 85.52288,125.25614 c -0.123304,-0.035 -0.666009,-12.70234 -0.755311,-12.79427 -0.0893,-0.0919 -12.735574,-1.00219 -12.766945,-1.12645 -0.03137,-0.12427 10.667539,-6.92795 10.702505,-7.05126 0.03496,-0.1233 -5.499866,-11.530422 -5.407933,-11.619723 0.09193,-0.0893 11.333548,5.774386 11.457815,5.743015 0.124267,-0.03137 7.235708,-10.528237 7.359012,-10.493271 0.123304,0.03496 0.666009,12.702339 0.755311,12.794269 0.0893,0.0919 12.735576,1.00219 12.766946,1.12645 0.0314,0.12427 -10.667541,6.92795 -10.702506,7.05126 -0.03497,0.1233 5.499866,11.53042 5.407936,11.61972 -0.0919,0.0893 -11.333551,-5.77438 -11.457818,-5.74301 -0.124267,0.0314 -7.235708,10.52823 -7.359012,10.49327 z"
       transform="matrix(-0.45559831,0,0,0.45556755,-49.441175,58.028419)" />
  </g>
  <path
     id="path6243"
     d="m 100.70778,28.17924 c -0.0273,8.5e-4 -0.0438,0.006 -0.0491,0.0138 -0.042,0.0654 -0.14807,1.06541 -0.23537,2.2225 -0.1288,1.70583 -0.0649,2.19776 0.33789,2.60118 0.44575,0.44638 0.43244,0.45872 -0.13174,0.11686 -0.57461,-0.34798 -0.61694,-0.27737 -0.48893,0.81965 0.077,0.66062 0.32474,1.46417 0.55012,1.78539 0.33055,0.47127 0.30819,0.55818 -0.11466,0.45089 -0.714625,-0.18135 -0.55424,1.03349 0.26459,2.00422 0.4154,0.49252 0.49608,0.75664 0.23923,0.78604 -0.21292,0.0243 -0.27842,0.1804 -0.14553,0.34671 0.13289,0.1663 0.10059,0.3183 -0.0717,0.3379 -0.17225,0.0197 -0.45181,-0.32859 -0.62177,-0.77391 -0.443379,-1.16167 -3.563427,-3.54611 -3.972607,-3.03609 -0.228871,0.28525 -0.513216,0.14749 -1.018647,-0.49444 -0.565698,-0.71853 -3.637834,-2.22798 -4.365623,-2.14478 -0.0971,0.011 -0.138353,0.4245 -0.09206,0.91832 l 0.08323,0.89793 -0.418922,-0.76784 c -0.854041,-1.56535 -2.355351,-1.48321 -5.71555,0.31364 -1.295042,0.69255 -2.73772,1.30304 -3.20587,1.35654 -0.468209,0.0535 -0.844846,0.14771 -0.837847,0.20891 0.0072,0.0613 1.249217,1.1263 2.760486,2.36692 1.987939,1.63197 2.893249,2.18085 3.273668,1.98437 0.379981,-0.19632 0.489167,-0.13077 0.393567,0.23703 -0.184799,0.71067 1.112814,1.14714 2.291955,0.7706 0.79344,-0.25338 0.908016,-0.22136 0.642716,0.18079 -0.256131,0.38818 -0.112742,0.54866 0.692878,0.77557 0.558718,0.15766 1.311969,0.15476 1.674041,-0.006 0.474909,-0.21102 0.674683,-0.14999 0.717682,0.21828 0.03275,0.28074 0.206832,0.49345 0.386402,0.47294 0.435029,-0.0497 5.225068,1.44838 5.105905,1.59688 -0.05117,0.0638 -0.838939,-0.0161 -1.750658,-0.1775 -0.911719,-0.16136 -1.948801,-0.26008 -2.304632,-0.21938 -0.56598,0.0647 -0.582326,0.13611 -0.130638,0.57161 0.458772,0.44235 0.439764,0.47853 -0.171428,0.32632 -1.454559,-0.36228 -2.524201,-0.30101 -3.634161,0.20726 -0.878341,0.40228 -1.057746,0.6163 -0.755165,0.90234 0.30745,0.29059 0.09495,0.45119 -0.94368,0.71162 -0.92274,0.23139 -1.653134,0.7128 -2.342114,1.5445 -0.55065,0.66465 -0.840391,1.24173 -0.64437,1.28213 0.58221,0.12065 0.463496,0.5769 -0.218282,0.83895 -1.109292,0.42638 -1.641777,4.25755 -0.688467,4.95377 0.452289,0.33061 0.472618,0.51471 0.153788,1.38355 -0.415431,1.13217 0.0037,3.40117 0.938719,5.08386 l 0.576022,1.03683 0.876429,-2.05989 c 1.968292,-4.62651 4.863578,-8.40759 8.331071,-10.87989 2.311388,-1.64809 2.856695,-1.65629 0.997147,-0.0149 -0.71317,0.62952 -1.946362,2.2452 -2.740643,3.59062 -1.877418,3.18013 -4.187991,8.73059 -3.878351,9.31664 0.133231,0.25206 -0.161592,2.05702 -0.654843,4.01119 -0.493319,1.95418 -0.899544,4.04645 -0.904545,4.6495 -0.0044,0.60299 -0.227463,2.66462 -0.495543,4.58115 -0.26808,1.91653 -0.401723,3.64666 -0.297104,3.84473 0.104699,0.19803 0.117162,1.54942 0.02756,3.00302 -0.08962,1.45361 -0.03382,4.28165 0.124026,6.28496 0.15794,2.00327 0.253619,4.14581 0.21332,4.76084 -0.04033,0.61502 0.125101,3.14982 0.36821,5.632874 0.219309,2.243766 0.344198,3.380356 0.514285,4.011746 l 5.046376,0 c 0.265436,-0.43221 0.238664,-1.065 0.0248,-2.89829 -0.171799,-1.47649 -0.174763,-2.85672 -0.0061,-3.06697 0.21467,-0.26752 0.08581,-1.37323 -0.429398,-3.68212 -0.941998,-4.22187 -0.939893,-4.19601 -0.305373,-4.26861 0.480359,-0.0549 0.459794,-0.50161 -0.193477,-4.26199 -0.628018,-3.61494 -0.664986,-4.28093 -0.266237,-4.77794 0.37172,-0.46331 0.373984,-1.34592 0.01047,-4.46208 -0.42155,-3.61384 -0.409445,-3.88988 0.179146,-3.95718 0.541661,-0.0619 0.624823,-0.39215 0.577122,-2.2936 -0.129111,-5.15723 -0.09729,-5.68139 0.346162,-5.73209 0.263822,-0.0302 0.508283,-0.71183 0.603583,-1.68507 0.205961,-2.10348 1.171841,-5.19111 2.286441,-7.30691 1.02667,-1.94881 1.399441,-2.15361 1.14322,-0.62838 -0.25956,1.54549 -0.206818,1.66624 0.577122,1.31795 0.659559,-0.29306 0.655797,-0.24756 -0.06945,0.83565 -0.552442,0.8251 -0.72466,1.50934 -0.615708,2.44298 0.110519,0.94726 0.254669,1.22031 0.535229,1.01203 0.21128,-0.1568 0.155708,0.0417 -0.123472,0.44153 -0.288369,0.41331 -0.390762,0.94815 -0.237022,1.23913 0.32161,0.60882 0.379284,0.6096 1.236376,0.022 0.658913,-0.45172 0.660513,-0.44793 0.180798,0.49664 -0.369331,0.72721 -0.382612,1.04691 -0.05567,1.35599 0.23534,0.22252 0.631745,0.29896 0.880845,0.17033 0.30683,-0.15882 0.40975,-0.0691 0.31915,0.27946 -0.0734,0.28229 0.4147,1.31953 1.08424,2.30519 1.1151,1.6424 1.20836,1.70948 1.11786,0.80422 -0.10786,-1.07482 0.32943,-2.09253 1.66247,-3.87119 0.52211,-0.6967 0.76071,-1.34007 0.60579,-1.63325 -0.15019,-0.28422 -0.0904,-0.47019 0.14552,-0.45089 0.64632,0.0526 0.51516,-1.42825 -0.20175,-2.27817 -0.59344,-0.70374 -0.60363,-0.76764 -0.10032,-0.63996 0.80316,0.20381 0.59237,-0.98479 -0.39357,-2.21864 l -0.79319,-0.99219 0.68846,0.0959 c 0.86844,0.12152 0.81708,-0.66103 -0.18079,-2.7445 -0.49513,-1.0337 -0.60459,-1.53504 -0.3594,-1.64814 0.19377,-0.0894 0.33223,-0.48212 0.30813,-0.87257 -0.0647,-1.03383 0.77582,1.61641 0.96463,3.04216 0.12412,0.93679 0.26672,1.15365 0.63279,0.96462 0.61754,-0.31879 0.65017,0.0993 0.0706,0.90069 -0.37017,0.51185 -0.37046,1.02232 0,2.58354 0.25389,1.07008 0.54895,1.93625 0.65539,1.92375 0.10647,-0.0122 0.51983,-0.39379 0.91888,-0.84777 0.7197,-0.8184 0.71975,-0.81141 -0.005,0.84225 -0.58241,1.33041 -0.6639,1.92943 -0.39963,2.96058 0.38927,1.51833 0.64637,1.7965 1.11786,1.20882 0.65223,-0.81284 0.98699,-0.50275 0.35884,0.33238 -1.04908,1.39483 -0.54465,2.98187 0.62233,1.95792 0.91922,-0.80655 1.24705,-0.73493 0.75461,0.16426 -0.73234,1.33719 -0.37175,1.9504 2.34597,3.98639 1.44705,1.08411 2.67652,1.96557 2.73292,1.95957 0.0559,-0.006 0.0786,-0.2077 0.0507,-0.44704 -0.0279,-0.23935 0.49539,-1.52419 1.16252,-2.85529 1.22283,-2.43967 1.40384,-3.79261 0.59255,-4.42847 -0.28711,-0.22519 -0.31736,-0.35935 -0.086,-0.38585 0.19529,-0.0223 0.56406,0.15634 0.81912,0.39743 0.59079,0.55843 1.03226,0.22184 0.91556,-0.69784 -0.17711,-1.39526 -1.65259,-3.3243 -2.99255,-3.91253 -1.50873,-0.66228 -1.13037,-1.08808 0.44318,-0.49885 1.34929,0.50524 1.43141,0.48608 1.33891,-0.30702 -0.0423,-0.36294 -0.84282,-1.25966 -1.77878,-1.9932 -0.93599,-0.73351 -1.44962,-1.27012 -1.14102,-1.19172 1.79749,0.45609 -1.88326,-3.93369 -4.82754,-5.75745 -1.14862,-0.71151 -2.04388,-1.34952 -1.98878,-1.41772 0.33131,-0.41291 3.8557,1.40276 5.61027,2.89002 2.14505,1.81837 5.07428,5.83655 5.69185,7.80796 0.18992,0.6062 0.45088,1.08982 0.57988,1.07543 0.29291,-0.0335 1.18928,-2.52218 1.52852,-4.24436 0.296,-1.50279 -0.33831,-5.49477 -1.08479,-6.82735 -0.47833,-0.85377 -0.52253,-0.86568 -0.88526,-0.23427 -0.34699,0.60716 -0.39117,0.56225 -0.48617,-0.52255 -0.0727,-0.82893 -0.42037,-1.51127 -1.15149,-2.26164 -1.10439,-1.13359 -1.64563,-1.10254 -1.57923,0.0904 0.0235,0.42281 -0.0981,0.26382 -0.29545,-0.3864 -0.23209,-0.76473 -0.68962,-1.28612 -1.48663,-1.69333 -1.42321,-0.72716 -0.98866,-1.00296 1.50261,-0.95306 1.85244,0.0371 3.80622,0.56318 4.27633,1.15149 0.46307,0.57951 0.86084,0.23043 0.75682,-0.66146 -0.34143,-2.8755 -2.44945,-4.96692 -4.4439,-4.40862 -0.88749,0.24845 -1.03547,0.21642 -0.78107,-0.16922 0.24822,-0.37622 0.0836,-0.4858 -0.78548,-0.5231 -0.8083,-0.0347 -1.40682,0.20301 -2.26274,0.89903 -1.08049,0.87862 -1.14353,0.89557 -0.87919,0.23482 0.1564,-0.39138 0.19957,-0.70252 0.0954,-0.69012 -0.3156,0.0361 -2.7484,1.67927 -3.6055,2.43526 -0.44197,0.38983 -0.89377,0.71887 -1.00431,0.73147 -0.11052,0.0126 0.15313,-0.92912 0.58649,-2.09297 0.60449,-1.62346 0.66683,-2.05342 0.26734,-1.84712 -0.41864,0.21617 -0.40649,0.0859 0.0612,-0.66532 0.425,-0.68267 0.52642,-1.40824 0.37648,-2.69323 -0.19572,-1.67785 -0.23468,-1.73839 -0.84556,-1.31961 -0.62185,0.42634 -0.62717,0.41366 -0.19568,-0.43601 0.39674,-0.7822 0.38039,-0.96592 -0.15159,-1.73909 -0.90452,-1.31449 -2.84805,-2.63948 -4.70958,-3.21028 -0.80538,-0.24695 -1.50908,-0.41387 -1.7005,-0.40789 z"
     style="fill:none;stroke:#000000;stroke-width:0.28222221;stroke-miterlimit:4.42857122;stroke-dasharray:none"
     inkscape:connector-curvature="0" />
  <g
     style="stroke:#000000;stroke-width:0.80000001;stroke-miterlimit:4.42857122;stroke-dasharray:none"
     transform="matrix(0.35277778,0,0,0.35277776,-163.01102,1.2722851)"
     id="g6245">
    <g
       style="stroke:#000000;stroke-width:0.80000001;stroke-miterlimit:4.42857122;stroke-dasharray:none"
       id="g6247"
       clip-path="url(#clipPath8354)">
      <g
         style="stroke:#000000;stroke-width:0.80000001;stroke-miterlimit:4.42857122;stroke-dasharray:none"
         id="g6249"
         transform="translate(1060.4491,95.3823)">
        <path
           sodipodi:nodetypes="ccccccccccccccccccccccccccccccccccccccccccccc"
           d="M -1.246888,-10.640607 C -1.622888,-10.093607 -1.982,-2.62 -1.945,-2.51 c -0.462,0.107 -1.024,0.398 -1.684,0.834 -2.008,1.324 -2.608,3.257 -2.746,5.53 -0.231,3.828 -2.424,6.021 -6.086,6.857 -2.421,0.554 -4.816,1.305 -7.268,1.623 -7.636,0.992 -11.051,5.995 -12.435,12.888 -1.135,5.656 -1.12,11.517 -3.457,17.474 0.253,0 0.5,-10e-4 0.753,-10e-4 -1.406,3.181 -2.867,6.315 -3.448,9.799 -0.039,0.23 0.067,0.41 0.219,0.518 -0.012,0.226 -0.029,0.444 -0.028,0.694 0.055,7.363 -1.124,14.559 -3.025,21.669 -2.024,7.564 -5.822,14.085 -11.106,19.791 -1.12,1.21 -2.181,2.58 -4.033,2.7 -2.707,0.176 -3.592,1.049 -1.907,3.694 1.066,1.672 -0.559,3.481 -1.416,4.453 -2.522,2.861 -3.276,6.397 -4.217,9.741 -1.687,5.985 -5.725,9.589 -11.278,10.717 -5.841,1.186 -10.008,-2.555 -13.302,-7.107 -1.674,-2.313 -2.1,-4.638 -1.162,-7.493 1.119,-3.408 2.703,-6.829 1.611,-10.657 -0.316,-1.11 0.21,-1.857 1.46,-2.665 2.084,-1.349 4.061,-3.343 3.411,-6.327 -0.449,-2.056 0.652,-3.123 2.112,-4.053 1.698,-1.082 3.044,-0.349 4.52,0.715 1.324,0.955 2.291,3.589 4.421,2.073 2.154,-1.534 0.126,-3.225 -0.519,-4.799 -0.124,-0.303 -0.152,-0.645 -0.224,-0.97 -0.48,-2.167 0.998,-5.555 -1.306,-6.303 -2.684,-0.871 -4.136,2.694 -6.27,4.115 -4.45,2.964 -6.891,8.072 -11.84,10.614 -3.483,1.788 -5.124,1.304 -5.537,-2.679 -0.467,-4.509 1.706,-7.817 5.266,-10.014 2.499,-1.543 3.294,-3.152 2.996,-6.06 -0.748,-7.286 -1.211,-14.606 -1.574,-21.923 -0.094,-1.883 -0.311,-2.946 -1.843,-3.289 -0.853,-2.544 -1.249,-4.858 0.405,-7.177 0.795,-0.315 1.525,-0.934 2.137,-2.125 0.946,-1.839 3.753,-1.009 5.555,-0.319 4.477,1.713 5.907,-0.181 5.542,-4.337 -1.195,-13.613 -1.384,-27.25 -0.946,-40.896 0.01,-0.348 -0.478,-1.576 -0.851,-2.499 -0.308,-0.052 -0.377623,-2.882176 -0.684623,-2.940176 z"
           style="fill:none;stroke:#000000;stroke-width:0.80000001;stroke-linecap:butt;stroke-linejoin:miter;stroke-miterlimit:4.42857122;stroke-dasharray:none;stroke-opacity:1"
           id="path6251"
           inkscape:connector-curvature="0" />
      </g>
    </g>
  </g>
  <path
     inkscape:connector-curvature="0"
     id="path6253"
     d="m 171.73424,52.78761 c -3.65196,0 -6.6375,-2.92799 -6.73419,-6.55725 -2.57878,0.86537 -4.98357,0.39508 -7.02965,-1.85815 -0.46214,-0.5087 -0.89335,-0.67352 -1.53292,-0.41176 -3.39726,1.38994 -3.39969,1.38461 -5.07891,-2.07367 0.54856,-0.27764 0.81593,0.43128 1.30418,0.0584 -0.22967,-0.29316 -0.48342,-0.57343 -0.68628,-0.88636 -0.28363,-0.43637 -0.76386,-0.93184 -0.5187,-1.41937 0.30621,-0.6096 0.93653,0.22232 1.48334,-0.16151 -0.0536,-0.63394 -0.53267,-1.35103 -0.0204,-2.08304 0.38241,0.26317 0.73301,0.59414 1.1493,0.77335 1.15886,0.49848 2.01221,-0.18633 2.86136,-0.83509 0.94474,-0.72249 -0.03,-1.25562 -0.2442,-1.78373 -0.47445,-1.17165 -1.34677,-2.87776 -2.02131,-4.25097 l 3.41921,0 c -0.51748,0.83109 0.49355,2.52195 1.02416,3.6303 0.51263,-1.14238 1.54017,-2.65402 1.28487,-3.6303 l 3.73174,0 c -0.0854,0.0854 -0.17368,0.16946 -0.26791,0.24805 -0.78249,0.49642 -1.80659,2.71971 -2.37462,3.78078 2.94744,-0.15169 5.49958,0.12391 8.19655,0.29325 -0.97745,-2.34 -2.04349,-3.83586 -2.57802,-4.32208 l 4.06962,0 c -0.10871,0.23765 -0.23337,0.55527 -0.25135,0.62507 -0.25752,0.99518 0.69955,2.04651 1.37584,3.14965 0.43425,-0.41002 0.74419,-2.39251 0.66144,-3.77472 l 3.7119,0 c -0.48844,0.39779 -0.95335,1.80157 -1.48167,3.20862 -0.75,1.99778 -0.5562,2.52836 1.83775,4.30389 1.31549,0.97543 2.24432,-0.0637 3.18657,-0.81084 0.44205,0.66322 0.46448,1.36437 0.32301,2.06816 -0.13652,0.67733 -0.64319,1.54508 0.79154,1.02967 0.48015,-0.17251 0.45805,0.31215 0.34728,0.51429 -0.53236,0.97014 -0.44413,2.09356 -0.77115,3.07357 -0.29788,0.8922 -1.31464,1.63815 -2.46447,2.01635 -0.32975,3.40799 -3.21147,6.08541 -6.70391,6.08541 z m 0,-1.39623 c 2.64509,0 4.82453,-1.90678 5.25805,-4.4246 -0.36308,0.0109 -0.71591,-0.0224 -1.04013,-0.10914 -0.97615,-0.26105 -1.46705,-0.21497 -2.12604,0.71989 -1.40654,1.99531 -3.79072,1.58489 -5.13128,-0.94699 -0.64519,-1.21929 -1.21691,-1.41691 -2.28478,-0.97731 -0.01,0.13124 -0.0198,0.26257 -0.0198,0.39633 0,2.95874 2.38528,5.34182 5.34402,5.34182 z"
     style="fill:none;stroke:#000000;stroke-width:0.28222221;stroke-linecap:butt;stroke-linejoin:miter;stroke-miterlimit:4.42857122;stroke-dasharray:none;stroke-opacity:1" />
  <path
     style="fill:none;stroke:#000000;stroke-width:0.28222221;stroke-miterlimit:4.42857122;stroke-dasharray:none"
     d="m 172.41799,79.40458 c 0.54925,-0.0201 1.1118,-0.21158 1.74405,-0.57602 0.82166,-0.47368 1.18979,-0.55369 1.5682,-0.34067 0.56435,0.31776 2.2021,0.1204 2.47331,-0.29819 0.2662,-0.41086 -0.69197,-1.2927 -1.87634,-1.72641 -0.94008,-0.34426 -1.03884,-0.47227 -1.08204,-1.40615 -0.026,-0.56506 -0.16785,-1.52885 -0.31529,-2.14204 -0.21064,-0.87604 -0.15925,-1.68692 0.23923,-3.78462 l 0.50711,-2.66954 -0.63169,-1.69004 c -0.28885,-2.61961 -1.20272,-4.76097 -1.0225,-8.36359 l 0.14221,-2.84813 -2.03674,0 c -0.0313,0.41213 -0.0849,1.2779 -0.14497,2.40442 -0.0743,1.39155 -0.27387,2.94637 -0.44373,3.45502 -0.16985,0.50865 -0.32134,1.49496 -0.33624,2.19216 -0.0149,0.69723 -0.077,1.26661 -0.13835,1.2656 -0.0614,-10e-4 -0.30279,0.066 -0.53634,0.14994 -0.37905,0.13631 -0.40563,-0.39034 -0.24915,-4.93779 0.0738,-2.14506 0.0819,-3.70086 0.0303,-4.52935 l -2.0191,0 c -0.0122,0.0422 -0.0238,0.0788 -0.0364,0.12513 -0.16469,0.617 -0.17978,1.39043 -0.0375,2.03895 0.17302,0.78844 0.11564,1.38133 -0.23427,2.41376 -0.25505,0.75268 -0.55282,1.92777 -0.66146,2.61168 l -0.19788,1.24353 -1.27827,-0.0276 c -1.07841,-0.023 -1.30501,-0.11814 -1.4497,-0.6102 -0.0943,-0.3208 -0.67612,-1.14698 -1.29315,-1.83554 -1.31895,-1.4719 -2.34977,-3.51307 -2.56646,-5.08274 -0.0622,-0.45042 -0.11195,-0.71396 -0.21001,-0.877 l -1.84216,0 c -0.0328,0.0344 -0.0608,0.0708 -0.0772,0.1108 -0.30282,0.74131 0.91603,5.30222 1.81791,6.80254 1.26794,2.10927 0.93495,2.71963 -0.38034,0.69729 -1.74434,-2.68185 -2.48192,-4.39 -2.52512,-5.84675 -0.0345,-1.16315 -0.1689,-1.63499 -0.65374,-1.76388 l -0.87533,0 c -0.53806,0.0726 -0.55374,0.26681 -0.6124,1.91216 -0.0931,2.61321 0.23991,5.16035 0.83178,6.35827 0.27686,0.56036 0.49814,1.27299 0.49114,1.58366 -0.0235,1.09954 0.76892,4.91375 1.21377,5.84342 0.97856,2.04486 2.39877,2.68904 6.14275,2.78584 2.43713,0.063 3.57937,0.33771 4.6495,1.11842 0.18901,0.13789 0.39405,0.84051 0.45585,1.56105 0.10521,1.22578 0.0589,1.34795 -0.72264,1.90004 -0.45949,0.32452 -0.83991,0.76202 -0.84391,0.97234 -0.011,0.5157 0.86267,0.97465 1.7716,0.93045 0.40832,-0.0199 1.12197,0.17306 1.58585,0.42884 0.58039,0.32004 1.11652,0.47103 1.66577,0.45091 z"
     id="path6255"
     inkscape:connector-curvature="0" />
  <path
     style="fill:none;stroke:#000000;stroke-width:0.28222221;stroke-miterlimit:4.42857122;stroke-dasharray:none"
     d="m 199.75691,96.099232 c -0.86314,0.496185 -0.78611,1.954979 0.19298,3.658142 0.69091,1.201866 0.70735,1.388576 0.19879,2.289066 -0.3045,0.53918 -0.62322,1.18416 -0.70831,1.43334 -0.0851,0.24919 -0.27634,0.52255 -0.42444,0.60768 -0.14811,0.0851 -0.2184,0.24278 -0.15669,0.35012 0.0618,0.10744 -0.17293,0.57361 -0.5215,1.03607 -0.34861,0.46243 -0.99787,1.33816 -1.44299,1.94597 -2.50216,3.41667 -7.11561,6.23762 -12.91034,7.89412 -4.37915,1.25182 -6.16173,2.39909 -7.52356,4.84194 -0.53931,0.96741 -1.0808,2.50175 -1.20304,3.40966 -0.2194,1.62952 -0.2034,1.68236 1.23972,4.11307 0.80407,1.35437 1.82201,3.40929 2.26223,4.56676 0.57347,1.50823 0.9934,2.26176 1.48228,2.65815 0.96137,0.77948 1.20313,0.48823 0.94569,-1.13877 -0.18066,-1.142 -0.57567,-1.9686 -2.06606,-4.32726 l -1.84226,-2.916 1.28018,0.74042 c 2.32884,1.34674 4.45038,2.82321 4.7135,3.28092 0.14262,0.24809 0.24903,1.47199 0.23642,2.71949 l -0.0232,2.2679 2.45744,3.83905 c 1.92716,3.01058 2.60578,3.88652 3.14623,4.06172 0.37899,0.12287 0.80089,0.41769 0.93741,0.65517 0.0159,0.0276 0.0337,0.0486 0.0512,0.071 l 2.30577,-1.3255 c -0.0179,-0.0492 -0.0428,-0.10093 -0.0751,-0.15711 -0.16019,-0.27866 -0.65878,-0.59198 -1.10796,-0.69635 -0.44918,-0.10436 -1.2811,-0.67601 -1.84833,-1.27087 -1.1095,-1.16358 -3.01968,-4.57889 -2.67256,-4.77844 0.11605,-0.0667 2.05085,1.10233 4.29948,2.59828 1.86565,1.24119 3.51551,2.30951 4.17711,2.71059 l 2.49596,-1.43484 c -0.2022,-0.11493 -0.50783,-0.2684 -0.872,-0.43078 -2.7476,-1.22519 -4.14662,-2.02864 -5.74274,-3.29838 l -1.70332,-1.35485 -0.68291,-2.25745 c -0.54904,-1.81371 -1.15882,-4.93454 -1.08982,-5.57769 0.007,-0.0683 0.94951,-0.0166 2.09373,0.11506 3.89629,0.44818 5.18965,0.24743 8.05683,-1.25104 1.81903,-0.95065 2.90564,-1.69353 3.71694,-2.54046 0.63056,-0.65826 1.21796,-1.17779 1.30479,-1.15446 0.0867,0.0235 0.30984,0.31377 0.49531,0.64483 2.77856,4.95439 3.28063,5.9846 3.56286,7.3115 0.2987,1.40413 0.36313,1.50992 0.95705,1.57533 0.35015,0.0386 0.63151,0.23207 0.62528,0.4296 -0.006,0.19755 0.27298,0.51139 0.62081,0.69726 0.26387,0.14102 0.49516,0.18345 0.81728,0.10112 l 2.45153,-1.4093 c 0.19524,-0.16852 0.31735,-0.30825 0.3198,-0.386 0.006,-0.18635 -0.52528,-0.69348 -1.18039,-1.1265 -1.36206,-0.90034 -2.34129,-2.51759 -2.55737,-4.22413 -0.0772,-0.60969 -0.30192,-1.39011 -0.49961,-1.73399 -0.19769,-0.34389 -0.69151,-1.62693 -1.09721,-2.85095 -0.55557,-1.67627 -0.66455,-2.52188 -0.44102,-3.42713 0.31675,-1.28268 0.17568,-3.26679 -0.28963,-4.07622 -0.15574,-0.27091 -0.13595,-1.14973 0.0435,-1.95277 l 0.32625,-1.45979 1.13811,0.48891 c 0.62599,0.26902 1.37075,0.70746 1.65504,0.97445 0.28428,0.26698 0.9014,0.50789 1.37145,0.53534 0.81209,0.0474 0.88264,-0.0206 1.42018,-1.36959 0.60553,-1.51952 0.66016,-1.37862 -1.32344,-3.43805 -0.72608,-0.75382 -1.90613,-3.65452 -2.13633,-5.25137 -0.0389,-0.27002 -0.70591,-0.88917 -1.48234,-1.37635 l -1.41207,-0.885835 0.33938,-0.71583 c 0.88952,-1.878028 1.39039,-3.85277 1.27828,-5.037324 -0.2574,-2.719507 -1.06667,-2.743204 -2.08169,-0.06094 -0.78988,2.087233 -2.23693,4.587411 -2.44534,4.224876 -0.0851,-0.148076 -0.30287,-0.184458 -0.48371,-0.0805 -0.20722,0.119118 -0.53628,-0.168198 -0.88899,-0.777738 -0.80733,-1.394358 -1.33641,-1.724117 -2.08092,-1.296126 z"
     id="path6257"
     inkscape:connector-curvature="0" />
  <g
     style="stroke:#000000;stroke-width:0.80000001;stroke-miterlimit:4.42857122;stroke-dasharray:none"
     id="g6261"
     transform="matrix(0.35277778,0,0,0.35277776,-161.72163,16.902047)">
    <g
       style="stroke:#000000;stroke-width:0.80000001;stroke-miterlimit:4.42857122;stroke-dasharray:none"
       clip-path="url(#clipPath8354)"
       id="g6263">
      <g
         style="stroke:#000000;stroke-width:0.80000001;stroke-miterlimit:4.42857122;stroke-dasharray:none"
         transform="translate(1060.4491,95.3823)"
         id="g6265">
        <path
           sodipodi:nodetypes="ccccccccccccccccccccccccccccccc"
           inkscape:connector-curvature="0"
           id="path6267"
           style="fill:none;stroke:#000000;stroke-width:0.80000001;stroke-linecap:butt;stroke-linejoin:miter;stroke-miterlimit:4.42857122;stroke-dasharray:none;stroke-opacity:1"
           d="m -158.252,-8.543 c -3.765,11.104 -9.477,21.912 -16.542,30.05 -1.371,1.58 -3.64,3.332 -2.599,5.537 0.878,1.86 3.543,1.372 5.485,1.507 6.565,0.455 6.979,0.853 7.01,7.395 0.017,3.686 0.034,5.362 1.143,6.13 0.463,2.98 1.349,6.144 3.525,8.201 2.345,4.005 4.873,7.332 4.124,11.744 -0.164,0.965 0.003,2.1 -1.072,2.62 -1.279,0.618 -2.08,-0.242 -3.019,-1.011 -2.769,-2.268 -4.825,-4.805 -5.107,-8.615 -0.166,-2.25 -0.555,-4.726 -3.757,-5.372 -1.45,4.599 -1.021,9.528 -2.89,14.04 -0.671,1.619 0.064,3.489 3.123,2.266 4.159,-1.663 9.957,3.316 9.264,7.784 -0.24,1.551 0.331,2.491 0.866,3.653 2.347,5.092 2.073,12.004 -0.556,14.535 -4.384,4.224 -13.934,5.681 -19.057,2.836 -6.016,-3.342 -9.999,-8.735 -13.744,-14.236 -6.171,-9.067 -12.25,-18.211 -17.477,-27.867 -0.561,-1.036 -1.162,-1.78 -1.884,-2.293 -0.927,-2.806 -1.866,-6.044 -4.066,-7.634 l 0.04,0 c -3.174,-5.7 -5.832,-10.778 -8.796,-15.672 -1.538,-2.54 -1.446,-4.59 0.517,-6.698 2.808,-3.017 2.191,-8.381 7.05,-10.102 0.921,-0.326 0.075,-1.743 -0.167,-2.699 -0.775,-3.06 -1.35,-6.147 -0.433,-9.322 0.614,-2.125 -0.05,-3.312 -1.664,-3.951 l -1.24407,-2.8335247 z" />
      </g>
    </g>
  </g>
  <path
     inkscape:connector-curvature="0"
     style="fill:none;stroke:#000000;stroke-width:0.28222221;stroke-miterlimit:4.42857122;stroke-dasharray:none"
     id="path6389"
     class="s0"
     d="m 218.15333,147.08991 -45.02473,0 0,17 45.02473,0 0,-17" />
</svg>
