<?xml version="1.0" encoding="UTF-8" standalone="no"?>
<svg
   xmlns:dc="http://purl.org/dc/elements/1.1/"
   xmlns:cc="http://creativecommons.org/ns#"
   xmlns:rdf="http://www.w3.org/1999/02/22-rdf-syntax-ns#"
   xmlns:svg="http://www.w3.org/2000/svg"
   xmlns="http://www.w3.org/2000/svg"
   xmlns:sodipodi="http://sodipodi.sourceforge.net/DTD/sodipodi-0.dtd"
   xmlns:inkscape="http://www.inkscape.org/namespaces/inkscape"
   width="500.25925mm"
   height="300.74619mm"
   viewBox="0 0 500.25922 300.74617"
   id="svg2362"
   version="1.1"
   inkscape:version="0.91 r13725"
   sodipodi:docname="on-top-of-antenna-laser-ready.svg">
  <metadata
     id="metadata3610">
    <rdf:RDF>
      <cc:Work
         rdf:about="">
        <dc:format>image/svg+xml</dc:format>
        <dc:type
           rdf:resource="http://purl.org/dc/dcmitype/StillImage" />
        <dc:title>Exported SVG</dc:title>
      </cc:Work>
    </rdf:RDF>
  </metadata>
  <defs
     id="defs3608">
    <clipPath
       id="clipPath8354"
       clipPathUnits="userSpaceOnUse">
      <path
         inkscape:connector-curvature="0"
         id="path8356"
         d="m 0,401.977 1335.807,0 L 1335.807,0 0,0 0,401.977 Z" />
    </clipPath>
    <clipPath
       id="clipPath6401"
       clipPathUnits="userSpaceOnUse">
      <path
         inkscape:connector-curvature="0"
         id="path6403"
         d="m 0,401.977 1335.807,0 L 1335.807,0 0,0 0,401.977 Z" />
    </clipPath>
  </defs>
  <sodipodi:namedview
     pagecolor="#ffffff"
     bordercolor="#666666"
     borderopacity="1"
     objecttolerance="10"
     gridtolerance="10"
     guidetolerance="10"
     inkscape:pageopacity="0"
     inkscape:pageshadow="2"
     inkscape:window-width="2560"
     inkscape:window-height="1376"
     id="namedview3606"
     showgrid="false"
     inkscape:zoom="0.70710678"
     inkscape:cx="1384.817"
     inkscape:cy="762.91405"
     inkscape:window-x="0"
     inkscape:window-y="64"
     inkscape:window-maximized="0"
     inkscape:current-layer="svg2362"
     fit-margin-top="0"
     fit-margin-left="0"
     fit-margin-right="0"
     fit-margin-bottom="0" />
  <title
     id="title2364">Exported SVG</title>
  <style
     id="style2366"><![CDATA[
polygon {
shape-rendering:crispEdges;
stroke-width:0.636142;
}
.s1 {
stroke:#000000;
stroke-width:0.304741;
stroke-linecap:round;
stroke-linejoin:round;
fill:none;
}
.s2 {
stroke:#19b219;
stroke-width:0.304741;
stroke-linecap:round;
stroke-linejoin:round;
fill:none;
}
.s3 {
stroke:#7f4c00;
stroke-width:0.304741;
stroke-linecap:round;
stroke-linejoin:round;
fill:none;
}
.s4 {
stroke:#00cc00;
stroke-width:0.304741;
stroke-linecap:round;
stroke-linejoin:round;
fill:none;
}
.s5 {
stroke:#000000;
stroke-width:0.203161;
stroke-linecap:round;
stroke-linejoin:round;
fill:none;
}
.s6 {
stroke:#ff19ff;
stroke-width:0.203161;
stroke-linecap:round;
stroke-linejoin:round;
fill:none;
}
.s7 {
stroke:#ff0000;
stroke-width:0.304741;
stroke-linecap:round;
stroke-linejoin:round;
fill:none;
}
.s8 {
stroke:#ffff00;
stroke-width:0.304741;
stroke-linecap:round;
stroke-linejoin:round;
fill:none;
}
.s9 {
stroke:#001919;
stroke-width:0.203161;
stroke-linecap:round;
stroke-linejoin:round;
fill:none;
}
.sa {
stroke:#006666;
stroke-width:0.203161;
stroke-linecap:round;
stroke-linejoin:round;
fill:none;
}
.sb {
stroke:#00ffff;
stroke-width:0.203161;
stroke-linecap:round;
stroke-linejoin:round;
fill:none;
}
.sc {
stroke:#ff0000;
stroke-width:1.625288;
stroke-linecap:round;
stroke-linejoin:round;
fill:none;
}
.sd {
stroke:#191919;
stroke-width:0.203161;
stroke-linecap:round;
stroke-linejoin:round;
fill:none;
}
.se {
stroke:#000000;
stroke-width:0.203161;
stroke-linecap:round;
stroke-linejoin:round;
stroke-dasharray:3.047,3.047;
fill:none;
}
.sf {
stroke:#000000;
stroke-width:0.609483;
stroke-linecap:round;
stroke-linejoin:round;
fill:none;
}
]]></style>
  <path
     style="fill:none;stroke:#ff00ff;stroke-width:0.28222221;stroke-miterlimit:4;stroke-dasharray:none"
     d="M 20.206931,292.42234 50.367258,275.06161 45.402558,263.0349 88.205088,238.39713 483.9407,7.685469 481.47728,3.405819 83.216378,229.73037 40.413847,254.36814 32.507657,244.03461 2.3473329,261.39534 20.206931,292.42234 M 22.045953,285.5946 9.1750699,263.23436 31.53531,250.36347 44.406198,272.72371 22.045953,285.5946"
     class="s0"
     id="path2426"
     inkscape:connector-curvature="0" />
  <g
     id="g11344"
     transform="translate(-58.349572,-114.77678)"
     style="stroke:#ff00ff">
    <path
       style="fill:none;stroke:#ff00ff;stroke-width:0.28222221;stroke-linecap:square;stroke-miterlimit:4;stroke-dasharray:none"
       id="path8"
       class="s0"
       d="m 113.77278,373.24402 -5.98646,-10.40011 -0.60667,0.34921 5.98645,10.40011 0.60668,-0.34921"
       inkscape:connector-curvature="0" />
    <path
       style="fill:none;stroke:#ff00ff;stroke-width:0.28222221;stroke-linecap:square;stroke-miterlimit:4;stroke-dasharray:none"
       id="path10"
       class="s0"
       d="m 538.43564,126.19665 -3.73377,-6.48659 -0.60667,0.34921 3.73377,6.48659 0.60667,-0.34921"
       inkscape:connector-curvature="0"
       sodipodi:nodetypes="ccccc" />
    <path
       style="fill:none;stroke:#ff00ff;stroke-width:0.28222221;stroke-linecap:square;stroke-miterlimit:4;stroke-dasharray:none"
       id="path12"
       class="s0"
       d="m 306.25283,262.44963 -5.98645,-10.40011 -0.60668,0.34921 5.98646,10.40011 0.60667,-0.34921"
       inkscape:connector-curvature="0" />
    <path
       style="fill:none;stroke:#ff00ff;stroke-width:0.28222221;stroke-linecap:square;stroke-miterlimit:4;stroke-dasharray:none"
       id="path14"
       class="s0"
       d="m 241.03547,299.98972 -5.98646,-10.40011 -0.60667,0.34921 5.98646,10.40011 0.60667,-0.34921"
       inkscape:connector-curvature="0" />
    <path
       style="fill:none;stroke:#ff00ff;stroke-width:0.28222221;stroke-linecap:square;stroke-miterlimit:4;stroke-dasharray:none"
       id="path16"
       class="s0"
       d="m 161.42261,345.81606 0.60669,-0.34921 -5.98646,-10.40012 -0.60668,0.34922 5.98645,10.40011"
       inkscape:connector-curvature="0" />
    <path
       style="fill:none;stroke:#ff00ff;stroke-width:0.28222221;stroke-linecap:square;stroke-miterlimit:4;stroke-dasharray:none"
       id="path18"
       class="s0"
       d="m 496.54018,152.9174 0.60669,-0.34922 -5.98645,-10.40011 -0.60669,0.34922 5.98645,10.40011"
       inkscape:connector-curvature="0" />
    <path
       style="fill:none;stroke:#ff00ff;stroke-width:0.28222221;stroke-linecap:square;stroke-miterlimit:4;stroke-dasharray:none"
       id="path20"
       class="s0"
       d="m 455.18241,176.72355 0.60667,-0.34921 -5.98646,-10.40011 -0.60666,0.34921 5.98645,10.40011"
       inkscape:connector-curvature="0" />
    <path
       style="fill:none;stroke:#ff00ff;stroke-width:0.28222221;stroke-linecap:square;stroke-miterlimit:4;stroke-dasharray:none"
       id="path22"
       class="s0"
       d="m 416.01734,199.26755 -5.98646,-10.40011 -0.60667,0.3492 5.98646,10.40012 0.60667,-0.34921"
       inkscape:connector-curvature="0" />
    <path
       style="fill:none;stroke:#ff00ff;stroke-width:0.28222221;stroke-linecap:square;stroke-miterlimit:4;stroke-dasharray:none"
       id="path24"
       class="s0"
       d="m 377.84026,221.24284 -5.98646,-10.40011 -0.60667,0.34921 5.98646,10.40011 0.60667,-0.34921"
       inkscape:connector-curvature="0" />
    <path
       style="fill:none;stroke:#ff00ff;stroke-width:0.28222221;stroke-linecap:square;stroke-miterlimit:4;stroke-dasharray:none"
       id="path26"
       class="s0"
       d="m 142.32975,356.8062 0.60668,-0.34921 -5.98646,-10.40011 -0.60668,0.34921 5.98646,10.40011"
       inkscape:connector-curvature="0" />
    <path
       style="fill:none;stroke:#ff00ff;stroke-width:0.28222221;stroke-linecap:square;stroke-miterlimit:4;stroke-dasharray:none"
       id="path28"
       class="s0"
       d="m 341.2492,242.3052 -5.98646,-10.40011 -0.60666,0.34921 5.98646,10.40011 0.60666,-0.34921"
       inkscape:connector-curvature="0" />
    <path
       style="fill:none;stroke:#ff00ff;stroke-width:0.28222221;stroke-linecap:square;stroke-miterlimit:4;stroke-dasharray:none"
       id="path30"
       class="s0"
       d="m 184.21619,332.69574 0.60668,-0.34921 -5.98646,-10.40011 -0.60667,0.34921 5.98645,10.40011"
       inkscape:connector-curvature="0" />
    <path
       style="fill:none;stroke:#ff00ff;stroke-width:0.28222221;stroke-linecap:square;stroke-miterlimit:4;stroke-dasharray:none"
       id="path32"
       class="s0"
       d="m 272.85114,281.67614 -5.98645,-10.40011 -0.60668,0.34921 5.98646,10.40011 0.60667,-0.34921"
       inkscape:connector-curvature="0" />
    <path
       style="fill:none;stroke:#ff00ff;stroke-width:0.28222221;stroke-linecap:square;stroke-miterlimit:4;stroke-dasharray:none"
       id="path34"
       class="s0"
       d="m 210.73648,317.43027 0.60667,-0.34921 -5.98646,-10.40011 -0.60667,0.34921 5.98646,10.40011"
       inkscape:connector-curvature="0" />
    <path
       style="fill:none;stroke:#ff00ff;stroke-width:0.28222221;stroke-linecap:square;stroke-miterlimit:4;stroke-dasharray:none"
       id="path36"
       class="s0"
       d="m 134.98034,361.03663 -5.98646,-10.40011 -0.60667,0.34921 5.98646,10.40011 0.60667,-0.34921"
       inkscape:connector-curvature="0" />
  </g>
  <g
     id="g9785"
     transform="matrix(0.86667596,-0.49887158,0.49887144,0.86667596,-152.86708,84.078779)"
     style="stroke:#ff00ff">
    <path
       sodipodi:nodetypes="cc"
       style="fill:none;stroke:#ff00ff;stroke-width:0.203161;stroke-linecap:round;stroke-linejoin:round"
       inkscape:connector-curvature="0"
       id="path2374"
       class="s6"
       d="m 604.731,258.139 2.032,-3.251" />
    <path
       style="fill:none;stroke:#ff00ff;stroke-width:0.203161;stroke-linecap:round;stroke-linejoin:round"
       inkscape:connector-curvature="0"
       id="path2624"
       class="s6"
       d="m 173.624,5 -2.032,3.657" />
    <path
       style="fill:none;stroke:#ff00ff;stroke-width:0.203161;stroke-linecap:round;stroke-linejoin:round"
       inkscape:connector-curvature="0"
       id="path2626"
       class="s6"
       d="M 606.763,254.888 400.351,135.836" />
    <path
       style="fill:none;stroke:#ff00ff;stroke-width:0.203161;stroke-linecap:round;stroke-linejoin:round"
       inkscape:connector-curvature="0"
       id="path2628"
       class="s6"
       d="M 386.536,127.709 173.624,5" />
    <path
       style="fill:none;stroke:#ff00ff;stroke-width:0.203161;stroke-linecap:round;stroke-linejoin:round"
       inkscape:connector-curvature="0"
       id="path2630"
       class="s6"
       d="m 173.624,5 5.282,1.219" />
    <path
       style="fill:none;stroke:#ff00ff;stroke-width:0.203161;stroke-linecap:round;stroke-linejoin:round"
       inkscape:connector-curvature="0"
       id="path2632"
       class="s6"
       d="m 606.763,254.888 -5.282,-1.219" />
    <path
       style="fill:none;stroke:#ff00ff;stroke-width:0.203161;stroke-linecap:round;stroke-linejoin:round"
       inkscape:connector-curvature="0"
       id="path2634"
       class="s6"
       d="m 606.763,254.888 -3.657,-4.47" />
    <path
       style="fill:none;stroke:#ff00ff;stroke-width:0.203161;stroke-linecap:round;stroke-linejoin:round"
       inkscape:connector-curvature="0"
       id="path2636"
       class="s6"
       d="m 173.624,5 3.656,4.063" />
    <path
       style="fill:none;stroke:#ff00ff;stroke-width:0.05733655;stroke-linecap:round;stroke-linejoin:round"
       id="path2242"
       class="s6"
       d="M 606.77229,254.90933 403.20533,137.48231"
       inkscape:connector-curvature="0" />
    <path
       style="fill:none;stroke:#ff00ff;stroke-width:0.05733655;stroke-linecap:round;stroke-linejoin:round"
       id="path2246"
       class="s6"
       d="m 173.63332,5.02129 3.657,4.063"
       inkscape:connector-curvature="0" />
    <path
       style="fill:none;stroke:#ff00ff;stroke-width:0.05733655;stroke-linecap:round;stroke-linejoin:round"
       id="path2252"
       class="s6"
       d="m 173.63332,5.02129 5.688,1.219"
       inkscape:connector-curvature="0" />
  </g>
  <path
     d="m 466.52235,40.118079 a 8.2930066,8.2930078 0 0 0 11.3245,3.05021 8.2930066,8.2930078 0 0 0 3.05021,-11.3245 8.2930066,8.2930078 0 0 0 -11.32449,-3.0502 8.2930066,8.2930078 0 0 0 -3.05022,11.32449"
     class="s0"
     id="path10447"
     inkscape:connector-curvature="0"
     style="fill:none;stroke:#ff00ff;stroke-width:0.28222224;stroke-miterlimit:4;stroke-dasharray:none" />
  <path
     sodipodi:nodetypes="ccccccccccc"
     style="fill:none;stroke:#ff00ff;stroke-width:0.28222221;stroke-miterlimit:4;stroke-dasharray:none"
     inkscape:connector-curvature="0"
     id="path9885"
     class="s0"
     d="m 480.29338,11.537639 -30.16033,17.36073 4.9647,12.02671 -42.80253,24.63777 -395.735615,230.711661 2.463427,4.27965 398.260898,-226.324551 42.80253,-24.63777 7.90619,10.33353 30.16032,-17.36073 -17.85959,-31.027" />
  <g
     id="g11410"
     transform="translate(-58.349572,-114.77678)"
     style="stroke:#ff00ff">
    <path
       inkscape:connector-curvature="0"
       d="m 503.42667,160.26952 5.98646,10.40012 0.60667,-0.34921 -5.98646,-10.40012 -0.60667,0.34921"
       class="s0"
       id="path9887"
       style="fill:none;stroke:#ff00ff;stroke-width:0.28222221;stroke-linecap:square;stroke-miterlimit:4;stroke-dasharray:none" />
    <path
       sodipodi:nodetypes="ccccc"
       inkscape:connector-curvature="0"
       d="m 78.763806,407.31689 3.733773,6.48659 0.606673,-0.34921 -3.733773,-6.48659 -0.606673,0.34921"
       class="s0"
       id="path9889"
       style="fill:none;stroke:#ff00ff;stroke-width:0.28222221;stroke-linecap:square;stroke-miterlimit:4;stroke-dasharray:none" />
    <path
       inkscape:connector-curvature="0"
       d="m 310.94661,271.06391 5.98646,10.40011 0.60668,-0.34921 -5.98646,-10.40011 -0.60668,0.34921"
       class="s0"
       id="path9891"
       style="fill:none;stroke:#ff00ff;stroke-width:0.28222221;stroke-linecap:square;stroke-miterlimit:4;stroke-dasharray:none" />
    <path
       inkscape:connector-curvature="0"
       d="m 376.16398,233.52382 5.98646,10.40011 0.60667,-0.34921 -5.98646,-10.40011 -0.60667,0.34921"
       class="s0"
       id="path9893"
       style="fill:none;stroke:#ff00ff;stroke-width:0.28222221;stroke-linecap:square;stroke-miterlimit:4;stroke-dasharray:none" />
    <path
       inkscape:connector-curvature="0"
       d="m 455.77683,187.69748 -0.60668,0.34921 5.98646,10.40012 0.60668,-0.34922 -5.98646,-10.40011"
       class="s0"
       id="path9895"
       style="fill:none;stroke:#ff00ff;stroke-width:0.28222221;stroke-linecap:square;stroke-miterlimit:4;stroke-dasharray:none" />
    <path
       inkscape:connector-curvature="0"
       d="m 120.65927,380.59614 -0.60669,0.34922 5.98645,10.40011 0.60669,-0.34922 -5.98645,-10.40011"
       class="s0"
       id="path9897"
       style="fill:none;stroke:#ff00ff;stroke-width:0.28222221;stroke-linecap:square;stroke-miterlimit:4;stroke-dasharray:none" />
    <path
       inkscape:connector-curvature="0"
       d="m 162.01704,356.78999 -0.60667,0.34921 5.98646,10.40011 0.60666,-0.34921 -5.98645,-10.40011"
       class="s0"
       id="path9899"
       style="fill:none;stroke:#ff00ff;stroke-width:0.28222221;stroke-linecap:square;stroke-miterlimit:4;stroke-dasharray:none" />
    <path
       inkscape:connector-curvature="0"
       d="m 201.18211,334.24599 5.98646,10.40011 0.60666,-0.3492 -5.98645,-10.40012 -0.60667,0.34921"
       class="s0"
       id="path9901"
       style="fill:none;stroke:#ff00ff;stroke-width:0.28222221;stroke-linecap:square;stroke-miterlimit:4;stroke-dasharray:none" />
    <path
       inkscape:connector-curvature="0"
       d="m 239.35919,312.2707 5.98646,10.40011 0.60667,-0.34921 -5.98646,-10.40011 -0.60667,0.34921"
       class="s0"
       id="path9903"
       style="fill:none;stroke:#ff00ff;stroke-width:0.28222221;stroke-linecap:square;stroke-miterlimit:4;stroke-dasharray:none" />
    <path
       inkscape:connector-curvature="0"
       d="m 474.8697,176.70734 -0.60668,0.34921 5.98646,10.40011 0.60667,-0.34921 -5.98645,-10.40011"
       class="s0"
       id="path9905"
       style="fill:none;stroke:#ff00ff;stroke-width:0.28222221;stroke-linecap:square;stroke-miterlimit:4;stroke-dasharray:none" />
    <path
       inkscape:connector-curvature="0"
       d="m 275.95025,291.20834 5.98646,10.40011 0.60666,-0.34921 -5.98646,-10.40011 -0.60666,0.34921"
       class="s0"
       id="path9907"
       style="fill:none;stroke:#ff00ff;stroke-width:0.28222221;stroke-linecap:square;stroke-miterlimit:4;stroke-dasharray:none" />
    <path
       inkscape:connector-curvature="0"
       d="m 432.98326,200.8178 -0.60668,0.34921 5.98646,10.40011 0.60667,-0.34921 -5.98645,-10.40011"
       class="s0"
       id="path9909"
       style="fill:none;stroke:#ff00ff;stroke-width:0.28222221;stroke-linecap:square;stroke-miterlimit:4;stroke-dasharray:none" />
    <path
       inkscape:connector-curvature="0"
       d="m 344.34831,251.8374 5.98645,10.40011 0.60668,-0.34921 -5.98646,-10.40011 -0.60667,0.34921"
       class="s0"
       id="path9911"
       style="fill:none;stroke:#ff00ff;stroke-width:0.28222221;stroke-linecap:square;stroke-miterlimit:4;stroke-dasharray:none" />
    <path
       inkscape:connector-curvature="0"
       d="m 406.46297,216.08327 -0.60667,0.34921 5.98646,10.40011 0.60667,-0.34921 -5.98646,-10.40011"
       class="s0"
       id="path9913"
       style="fill:none;stroke:#ff00ff;stroke-width:0.28222221;stroke-linecap:square;stroke-miterlimit:4;stroke-dasharray:none" />
    <path
       inkscape:connector-curvature="0"
       d="m 482.21911,172.47691 5.98646,10.40011 0.60667,-0.34921 -5.98646,-10.40011 -0.60667,0.34921"
       class="s0"
       id="path9915"
       style="fill:none;stroke:#ff00ff;stroke-width:0.28222221;stroke-linecap:square;stroke-miterlimit:4;stroke-dasharray:none" />
  </g>
  <text
     xml:space="preserve"
     style="font-style:normal;font-weight:normal;font-size:2.82222223px;line-height:125%;font-family:sans-serif;letter-spacing:0px;word-spacing:0px;fill:#000000;fill-opacity:1;stroke:none;stroke-width:1px;stroke-linecap:butt;stroke-linejoin:miter;stroke-opacity:1;"
     x="247.86154"
     y="8.5666866"
     id="text10581"
     sodipodi:linespacing="125%"><tspan
       sodipodi:role="line"
       id="tspan10583"
       x="247.86154"
       y="8.5666866"
       style="font-size:8.46666718px;fill:#ff00ff;stroke:none;">50cm</tspan></text>
  <g
     id="g11361"
     transform="translate(-58.349572,-114.77678)"
     style="stroke:#ff00ff">
    <path
       inkscape:connector-curvature="0"
       d="m 113.77278,373.24402 -5.98646,-10.40011 -0.60667,0.34921 5.98645,10.40011 0.60668,-0.34921"
       class="s0"
       id="path11363"
       style="fill:none;stroke:#ff00ff;stroke-width:0.28222221;stroke-linecap:square;stroke-miterlimit:4;stroke-dasharray:none" />
    <path
       sodipodi:nodetypes="ccccc"
       inkscape:connector-curvature="0"
       d="m 538.43564,126.19665 -3.73377,-6.48659 -0.60667,0.34921 3.73377,6.48659 0.60667,-0.34921"
       class="s0"
       id="path11365"
       style="fill:none;stroke:#ff00ff;stroke-width:0.28222221;stroke-linecap:square;stroke-miterlimit:4;stroke-dasharray:none" />
    <path
       inkscape:connector-curvature="0"
       d="m 306.25283,262.44963 -5.98645,-10.40011 -0.60668,0.34921 5.98646,10.40011 0.60667,-0.34921"
       class="s0"
       id="path11367"
       style="fill:none;stroke:#ff00ff;stroke-width:0.28222221;stroke-linecap:square;stroke-miterlimit:4;stroke-dasharray:none" />
    <path
       inkscape:connector-curvature="0"
       d="m 241.03547,299.98972 -5.98646,-10.40011 -0.60667,0.34921 5.98646,10.40011 0.60667,-0.34921"
       class="s0"
       id="path11369"
       style="fill:none;stroke:#ff00ff;stroke-width:0.28222221;stroke-linecap:square;stroke-miterlimit:4;stroke-dasharray:none" />
    <path
       inkscape:connector-curvature="0"
       d="m 161.42261,345.81606 0.60669,-0.34921 -5.98646,-10.40012 -0.60668,0.34922 5.98645,10.40011"
       class="s0"
       id="path11371"
       style="fill:none;stroke:#ff00ff;stroke-width:0.28222221;stroke-linecap:square;stroke-miterlimit:4;stroke-dasharray:none" />
    <path
       inkscape:connector-curvature="0"
       d="m 496.54018,152.9174 0.60669,-0.34922 -5.98645,-10.40011 -0.60669,0.34922 5.98645,10.40011"
       class="s0"
       id="path11373"
       style="fill:none;stroke:#ff00ff;stroke-width:0.28222221;stroke-linecap:square;stroke-miterlimit:4;stroke-dasharray:none" />
    <path
       inkscape:connector-curvature="0"
       d="m 455.18241,176.72355 0.60667,-0.34921 -5.98646,-10.40011 -0.60666,0.34921 5.98645,10.40011"
       class="s0"
       id="path11375"
       style="fill:none;stroke:#ff00ff;stroke-width:0.28222221;stroke-linecap:square;stroke-miterlimit:4;stroke-dasharray:none" />
    <path
       inkscape:connector-curvature="0"
       d="m 416.01734,199.26755 -5.98646,-10.40011 -0.60667,0.3492 5.98646,10.40012 0.60667,-0.34921"
       class="s0"
       id="path11377"
       style="fill:none;stroke:#ff00ff;stroke-width:0.28222221;stroke-linecap:square;stroke-miterlimit:4;stroke-dasharray:none" />
    <path
       inkscape:connector-curvature="0"
       d="m 377.84026,221.24284 -5.98646,-10.40011 -0.60667,0.34921 5.98646,10.40011 0.60667,-0.34921"
       class="s0"
       id="path11379"
       style="fill:none;stroke:#ff00ff;stroke-width:0.28222221;stroke-linecap:square;stroke-miterlimit:4;stroke-dasharray:none" />
    <path
       inkscape:connector-curvature="0"
       d="m 142.32975,356.8062 0.60668,-0.34921 -5.98646,-10.40011 -0.60668,0.34921 5.98646,10.40011"
       class="s0"
       id="path11381"
       style="fill:none;stroke:#ff00ff;stroke-width:0.28222221;stroke-linecap:square;stroke-miterlimit:4;stroke-dasharray:none" />
    <path
       inkscape:connector-curvature="0"
       d="m 341.2492,242.3052 -5.98646,-10.40011 -0.60666,0.34921 5.98646,10.40011 0.60666,-0.34921"
       class="s0"
       id="path11383"
       style="fill:none;stroke:#ff00ff;stroke-width:0.28222221;stroke-linecap:square;stroke-miterlimit:4;stroke-dasharray:none" />
    <path
       inkscape:connector-curvature="0"
       d="m 184.21619,332.69574 0.60668,-0.34921 -5.98646,-10.40011 -0.60667,0.34921 5.98645,10.40011"
       class="s0"
       id="path11385"
       style="fill:none;stroke:#ff00ff;stroke-width:0.28222221;stroke-linecap:square;stroke-miterlimit:4;stroke-dasharray:none" />
    <path
       inkscape:connector-curvature="0"
       d="m 272.85114,281.67614 -5.98645,-10.40011 -0.60668,0.34921 5.98646,10.40011 0.60667,-0.34921"
       class="s0"
       id="path11387"
       style="fill:none;stroke:#ff00ff;stroke-width:0.28222221;stroke-linecap:square;stroke-miterlimit:4;stroke-dasharray:none" />
    <path
       inkscape:connector-curvature="0"
       d="m 210.73648,317.43027 0.60667,-0.34921 -5.98646,-10.40011 -0.60667,0.34921 5.98646,10.40011"
       class="s0"
       id="path11389"
       style="fill:none;stroke:#ff00ff;stroke-width:0.28222221;stroke-linecap:square;stroke-miterlimit:4;stroke-dasharray:none" />
    <path
       inkscape:connector-curvature="0"
       d="m 134.98034,361.03663 -5.98646,-10.40011 -0.60667,0.34921 5.98646,10.40011 0.60667,-0.34921"
       class="s0"
       id="path11391"
       style="fill:none;stroke:#ff00ff;stroke-width:0.28222221;stroke-linecap:square;stroke-miterlimit:4;stroke-dasharray:none" />
  </g>
  <g
     id="g11427"
     transform="translate(-58.631794,-114.56511)"
     style="stroke:#ff00ff">
    <path
       style="fill:none;stroke:#ff00ff;stroke-width:0.28222221;stroke-linecap:square;stroke-miterlimit:4;stroke-dasharray:none"
       id="path11429"
       class="s0"
       d="m 503.42667,160.26952 5.98646,10.40012 0.60667,-0.34921 -5.98646,-10.40012 -0.60667,0.34921"
       inkscape:connector-curvature="0" />
    <path
       style="fill:none;stroke:#ff00ff;stroke-width:0.28222221;stroke-linecap:square;stroke-miterlimit:4;stroke-dasharray:none"
       id="path11431"
       class="s0"
       d="m 78.763806,407.31689 3.733773,6.48659 0.606673,-0.34921 -3.733773,-6.48659 -0.606673,0.34921"
       inkscape:connector-curvature="0"
       sodipodi:nodetypes="ccccc" />
    <path
       style="fill:none;stroke:#ff00ff;stroke-width:0.28222221;stroke-linecap:square;stroke-miterlimit:4;stroke-dasharray:none"
       id="path11433"
       class="s0"
       d="m 310.94661,271.06391 5.98646,10.40011 0.60668,-0.34921 -5.98646,-10.40011 -0.60668,0.34921"
       inkscape:connector-curvature="0" />
    <path
       style="fill:none;stroke:#ff00ff;stroke-width:0.28222221;stroke-linecap:square;stroke-miterlimit:4;stroke-dasharray:none"
       id="path11435"
       class="s0"
       d="m 376.16398,233.52382 5.98646,10.40011 0.60667,-0.34921 -5.98646,-10.40011 -0.60667,0.34921"
       inkscape:connector-curvature="0" />
    <path
       style="fill:none;stroke:#ff00ff;stroke-width:0.28222221;stroke-linecap:square;stroke-miterlimit:4;stroke-dasharray:none"
       id="path11437"
       class="s0"
       d="m 455.77683,187.69748 -0.60668,0.34921 5.98646,10.40012 0.60668,-0.34922 -5.98646,-10.40011"
       inkscape:connector-curvature="0" />
    <path
       style="fill:none;stroke:#ff00ff;stroke-width:0.28222221;stroke-linecap:square;stroke-miterlimit:4;stroke-dasharray:none"
       id="path11439"
       class="s0"
       d="m 120.65927,380.59614 -0.60669,0.34922 5.98645,10.40011 0.60669,-0.34922 -5.98645,-10.40011"
       inkscape:connector-curvature="0" />
    <path
       style="fill:none;stroke:#ff00ff;stroke-width:0.28222221;stroke-linecap:square;stroke-miterlimit:4;stroke-dasharray:none"
       id="path11441"
       class="s0"
       d="m 162.01704,356.78999 -0.60667,0.34921 5.98646,10.40011 0.60666,-0.34921 -5.98645,-10.40011"
       inkscape:connector-curvature="0" />
    <path
       style="fill:none;stroke:#ff00ff;stroke-width:0.28222221;stroke-linecap:square;stroke-miterlimit:4;stroke-dasharray:none"
       id="path11443"
       class="s0"
       d="m 201.18211,334.24599 5.98646,10.40011 0.60666,-0.3492 -5.98645,-10.40012 -0.60667,0.34921"
       inkscape:connector-curvature="0" />
    <path
       style="fill:none;stroke:#ff00ff;stroke-width:0.28222221;stroke-linecap:square;stroke-miterlimit:4;stroke-dasharray:none"
       id="path11445"
       class="s0"
       d="m 239.35919,312.2707 5.98646,10.40011 0.60667,-0.34921 -5.98646,-10.40011 -0.60667,0.34921"
       inkscape:connector-curvature="0" />
    <path
       style="fill:none;stroke:#ff00ff;stroke-width:0.28222221;stroke-linecap:square;stroke-miterlimit:4;stroke-dasharray:none"
       id="path11447"
       class="s0"
       d="m 474.8697,176.70734 -0.60668,0.34921 5.98646,10.40011 0.60667,-0.34921 -5.98645,-10.40011"
       inkscape:connector-curvature="0" />
    <path
       style="fill:none;stroke:#ff00ff;stroke-width:0.28222221;stroke-linecap:square;stroke-miterlimit:4;stroke-dasharray:none"
       id="path11449"
       class="s0"
       d="m 275.95025,291.20834 5.98646,10.40011 0.60666,-0.34921 -5.98646,-10.40011 -0.60666,0.34921"
       inkscape:connector-curvature="0" />
    <path
       style="fill:none;stroke:#ff00ff;stroke-width:0.28222221;stroke-linecap:square;stroke-miterlimit:4;stroke-dasharray:none"
       id="path11451"
       class="s0"
       d="m 432.98326,200.8178 -0.60668,0.34921 5.98646,10.40011 0.60667,-0.34921 -5.98645,-10.40011"
       inkscape:connector-curvature="0" />
    <path
       style="fill:none;stroke:#ff00ff;stroke-width:0.28222221;stroke-linecap:square;stroke-miterlimit:4;stroke-dasharray:none"
       id="path11453"
       class="s0"
       d="m 344.34831,251.8374 5.98645,10.40011 0.60668,-0.34921 -5.98646,-10.40011 -0.60667,0.34921"
       inkscape:connector-curvature="0" />
    <path
       style="fill:none;stroke:#ff00ff;stroke-width:0.28222221;stroke-linecap:square;stroke-miterlimit:4;stroke-dasharray:none"
       id="path11455"
       class="s0"
       d="m 406.46297,216.08327 -0.60667,0.34921 5.98646,10.40011 0.60667,-0.34921 -5.98646,-10.40011"
       inkscape:connector-curvature="0" />
    <path
       style="fill:none;stroke:#ff00ff;stroke-width:0.28222221;stroke-linecap:square;stroke-miterlimit:4;stroke-dasharray:none"
       id="path11457"
       class="s0"
       d="m 482.21911,172.47691 5.98646,10.40011 0.60667,-0.34921 -5.98646,-10.40011 -0.60667,0.34921"
       inkscape:connector-curvature="0" />
  </g>
  <g
     id="g11459"
     transform="translate(-58.06735,-114.98845)"
     style="stroke:#ff00ff">
    <path
       style="fill:none;stroke:#ff00ff;stroke-width:0.28222221;stroke-linecap:square;stroke-miterlimit:4;stroke-dasharray:none"
       id="path11461"
       class="s0"
       d="m 113.77278,373.24402 -5.98646,-10.40011 -0.60667,0.34921 5.98645,10.40011 0.60668,-0.34921"
       inkscape:connector-curvature="0" />
    <path
       style="fill:none;stroke:#ff00ff;stroke-width:0.28222221;stroke-linecap:square;stroke-miterlimit:4;stroke-dasharray:none"
       id="path11463"
       class="s0"
       d="m 538.43564,126.19665 -3.73377,-6.48659 -0.60667,0.34921 3.73377,6.48659 0.60667,-0.34921"
       inkscape:connector-curvature="0"
       sodipodi:nodetypes="ccccc" />
    <path
       style="fill:none;stroke:#ff00ff;stroke-width:0.28222221;stroke-linecap:square;stroke-miterlimit:4;stroke-dasharray:none"
       id="path11465"
       class="s0"
       d="m 306.25283,262.44963 -5.98645,-10.40011 -0.60668,0.34921 5.98646,10.40011 0.60667,-0.34921"
       inkscape:connector-curvature="0" />
    <path
       style="fill:none;stroke:#ff00ff;stroke-width:0.28222221;stroke-linecap:square;stroke-miterlimit:4;stroke-dasharray:none"
       id="path11467"
       class="s0"
       d="m 241.03547,299.98972 -5.98646,-10.40011 -0.60667,0.34921 5.98646,10.40011 0.60667,-0.34921"
       inkscape:connector-curvature="0" />
    <path
       style="fill:none;stroke:#ff00ff;stroke-width:0.28222221;stroke-linecap:square;stroke-miterlimit:4;stroke-dasharray:none"
       id="path11469"
       class="s0"
       d="m 161.42261,345.81606 0.60669,-0.34921 -5.98646,-10.40012 -0.60668,0.34922 5.98645,10.40011"
       inkscape:connector-curvature="0" />
    <path
       style="fill:none;stroke:#ff00ff;stroke-width:0.28222221;stroke-linecap:square;stroke-miterlimit:4;stroke-dasharray:none"
       id="path11471"
       class="s0"
       d="m 496.54018,152.9174 0.60669,-0.34922 -5.98645,-10.40011 -0.60669,0.34922 5.98645,10.40011"
       inkscape:connector-curvature="0" />
    <path
       style="fill:none;stroke:#ff00ff;stroke-width:0.28222221;stroke-linecap:square;stroke-miterlimit:4;stroke-dasharray:none"
       id="path11473"
       class="s0"
       d="m 455.18241,176.72355 0.60667,-0.34921 -5.98646,-10.40011 -0.60666,0.34921 5.98645,10.40011"
       inkscape:connector-curvature="0" />
    <path
       style="fill:none;stroke:#ff00ff;stroke-width:0.28222221;stroke-linecap:square;stroke-miterlimit:4;stroke-dasharray:none"
       id="path11475"
       class="s0"
       d="m 416.01734,199.26755 -5.98646,-10.40011 -0.60667,0.3492 5.98646,10.40012 0.60667,-0.34921"
       inkscape:connector-curvature="0" />
    <path
       style="fill:none;stroke:#ff00ff;stroke-width:0.28222221;stroke-linecap:square;stroke-miterlimit:4;stroke-dasharray:none"
       id="path11477"
       class="s0"
       d="m 377.84026,221.24284 -5.98646,-10.40011 -0.60667,0.34921 5.98646,10.40011 0.60667,-0.34921"
       inkscape:connector-curvature="0" />
    <path
       style="fill:none;stroke:#ff00ff;stroke-width:0.28222221;stroke-linecap:square;stroke-miterlimit:4;stroke-dasharray:none"
       id="path11479"
       class="s0"
       d="m 142.32975,356.8062 0.60668,-0.34921 -5.98646,-10.40011 -0.60668,0.34921 5.98646,10.40011"
       inkscape:connector-curvature="0" />
    <path
       style="fill:none;stroke:#ff00ff;stroke-width:0.28222221;stroke-linecap:square;stroke-miterlimit:4;stroke-dasharray:none"
       id="path11481"
       class="s0"
       d="m 341.2492,242.3052 -5.98646,-10.40011 -0.60666,0.34921 5.98646,10.40011 0.60666,-0.34921"
       inkscape:connector-curvature="0" />
    <path
       style="fill:none;stroke:#ff00ff;stroke-width:0.28222221;stroke-linecap:square;stroke-miterlimit:4;stroke-dasharray:none"
       id="path11483"
       class="s0"
       d="m 184.21619,332.69574 0.60668,-0.34921 -5.98646,-10.40011 -0.60667,0.34921 5.98645,10.40011"
       inkscape:connector-curvature="0" />
    <path
       style="fill:none;stroke:#ff00ff;stroke-width:0.28222221;stroke-linecap:square;stroke-miterlimit:4;stroke-dasharray:none"
       id="path11485"
       class="s0"
       d="m 272.85114,281.67614 -5.98645,-10.40011 -0.60668,0.34921 5.98646,10.40011 0.60667,-0.34921"
       inkscape:connector-curvature="0" />
    <path
       style="fill:none;stroke:#ff00ff;stroke-width:0.28222221;stroke-linecap:square;stroke-miterlimit:4;stroke-dasharray:none"
       id="path11487"
       class="s0"
       d="m 210.73648,317.43027 0.60667,-0.34921 -5.98646,-10.40011 -0.60667,0.34921 5.98646,10.40011"
       inkscape:connector-curvature="0" />
    <path
       style="fill:none;stroke:#ff00ff;stroke-width:0.28222221;stroke-linecap:square;stroke-miterlimit:4;stroke-dasharray:none"
       id="path11489"
       class="s0"
       d="m 134.98034,361.03663 -5.98646,-10.40011 -0.60667,0.34921 5.98646,10.40011 0.60667,-0.34921"
       inkscape:connector-curvature="0" />
  </g>
  <path
     d="m 171.7074,89.724393 -44.99999,-34.920999 -44.999959,34.920999 0,49.999987 89.999949,0 0,-49.999987 m -84.999959,2.447998 39.999969,-31.040001 39.99999,31.040001 0,26.161999 -79.999959,0 0,-26.161999"
     class="s0"
     id="path5820"
     style="fill:none;stroke:#000000;stroke-width:0.28222218;stroke-miterlimit:4.42857122;stroke-dasharray:none"
     inkscape:connector-curvature="0" />
  <path
     d="m 30.884041,49.144737 0,89.999983 16.99999,0 0,-89.999983 -16.99999,0"
     class="s0"
     id="path5822"
     style="fill:none;stroke:#000000;stroke-width:0.28222218;stroke-miterlimit:4.42857122;stroke-dasharray:none"
     inkscape:connector-curvature="0" />
  <path
     d="m 3.7046414,3.8114379 0,24.9999961 75.9329796,0 0,-24.9999961 -18.97299,0 -56.9599896,0"
     class="s0"
     id="path5824"
     style="fill:none;stroke:#000000;stroke-width:0.28222218;stroke-miterlimit:4.42857122;stroke-dasharray:none"
     inkscape:connector-curvature="0" />
  <path
     d="m 4.3005114,139.11585 24.9999996,0 0,-78.932985 -24.9999996,0 0,2.999996 0,75.932989"
     class="s0"
     id="path5826"
     style="fill:none;stroke:#000000;stroke-width:0.28222218;stroke-miterlimit:4.42857122;stroke-dasharray:none"
     inkscape:connector-curvature="0" />
  <path
     d="m 126.79611,53.466716 44.99999,34.920985 44.99999,-34.920985 0,-49.9999981 -89.99998,0 0,49.9999981 m 84.99999,-2.449 -40,31.040997 -39.99999,-31.040997 0,-45.0339981 79.99999,0 0,45.0339981"
     class="s0"
     id="path5828"
     style="fill:none;stroke:#000000;stroke-width:0.28222218;stroke-miterlimit:4.42857122;stroke-dasharray:none"
     inkscape:connector-curvature="0" />
  <path
     d="m 79.962431,29.825038 -30,0 0,110.007972 30,0 0,-110.007972"
     class="s0"
     id="path5830"
     style="fill:none;stroke:#000000;stroke-width:0.28222218;stroke-miterlimit:4.42857122;stroke-dasharray:none"
     inkscape:connector-curvature="0" />
  <path
     d="m 48.810139,30.495534 -45.0247298,0 0,16.999998 45.0247298,0 0,-16.999998"
     class="s0"
     id="path5832"
     style="fill:none;stroke:#000000;stroke-width:0.28222218;stroke-miterlimit:4.42857122;stroke-dasharray:none"
     inkscape:connector-curvature="0" />
  <g
     id="g6237"
     transform="matrix(0.9994846,-0.03210028,0.03210029,0.99948459,198.1141,-10.745332)"
     style="stroke-width:0.28222221;stroke-miterlimit:4.42857122;stroke-dasharray:none">
    <path
       style="opacity:1;fill:none;stroke:#000000;stroke-width:1;stroke-linecap:round;stroke-linejoin:miter;stroke-miterlimit:4.42857122;stroke-dasharray:none;stroke-dashoffset:0"
       d="m -340.55469,311.50781 c -0.4369,0.1239 -2.35936,45.00824 -2.67578,45.33399 -0.31642,0.32574 -45.12712,3.54992 -45.23828,3.99023 -0.11116,0.44032 37.79993,24.54747 37.92383,24.98438 0.12389,0.4369 -19.48786,40.8574 -19.16211,41.17382 0.32574,0.31643 40.15734,-20.46076 40.59765,-20.34961 0.44032,0.11116 25.63927,37.30359 26.07618,37.17969 0.4369,-0.12389 2.35936,-45.00824 2.67578,-45.33398 0.31642,-0.32575 45.12517,-3.54992 45.23633,-3.99024 0.0661,-0.26179 -12.9288,-8.65015 -23.81055,-15.69531 52.35605,-4.03047 93.50983,23.66369 121.4375,68.51172 0.85468,-10.28289 -0.92942,-27.13312 -6.02344,-37.10742 0,0 10.5715,2.15865 24.2832,11.12109 -3.27264,-13.0979 -10.05703,-23.67187 -15.8125,-28.70117 8.09221,-1.67226 11.81841,-1.97135 22.78321,-0.23828 -11.06534,-17.56957 -61.41163,-60.13841 -154.01758,-37.4043 5.62771,-11.84665 12.59862,-26.45198 12.40039,-26.64453 -0.32575,-0.31642 -40.15734,20.46077 -40.59766,20.34961 -0.44031,-0.11116 -25.63926,-37.30358 -26.07617,-37.17969 z"
       transform="scale(0.28222222,0.2822222)"
       id="path6239"
       inkscape:connector-curvature="0"
       sodipodi:nodetypes="ccscccccccccccccssc" />
    <path
       sodipodi:type="star"
       style="opacity:1;fill:none;stroke:#000000;stroke-width:0.61947495;stroke-linecap:round;stroke-linejoin:miter;stroke-miterlimit:4.42857122;stroke-dasharray:none;stroke-dashoffset:0"
       id="path6241"
       sodipodi:sides="6"
       sodipodi:cx="90.817451"
       sodipodi:cy="106.58516"
       sodipodi:r1="19.407162"
       sodipodi:r2="8.4342642"
       sodipodi:arg1="1.8471145"
       sodipodi:arg2="2.3707132"
       inkscape:flatsided="false"
       inkscape:rounded="0.01"
       inkscape:randomized="0"
       d="m 85.52288,125.25614 c -0.123304,-0.035 -0.666009,-12.70234 -0.755311,-12.79427 -0.0893,-0.0919 -12.735574,-1.00219 -12.766945,-1.12645 -0.03137,-0.12427 10.667539,-6.92795 10.702505,-7.05126 0.03496,-0.1233 -5.499866,-11.530422 -5.407933,-11.619723 0.09193,-0.0893 11.333548,5.774386 11.457815,5.743015 0.124267,-0.03137 7.235708,-10.528237 7.359012,-10.493271 0.123304,0.03496 0.666009,12.702339 0.755311,12.794269 0.0893,0.0919 12.735576,1.00219 12.766946,1.12645 0.0314,0.12427 -10.667541,6.92795 -10.702506,7.05126 -0.03497,0.1233 5.499866,11.53042 5.407936,11.61972 -0.0919,0.0893 -11.333551,-5.77438 -11.457818,-5.74301 -0.124267,0.0314 -7.235708,10.52823 -7.359012,10.49327 z"
       transform="matrix(-0.45559831,0,0,0.45556755,-49.441175,58.028419)" />
  </g>
  <path
     id="path6243"
     d="m 100.56235,3.2853967 c -0.0273,8.5e-4 -0.0438,0.006 -0.0491,0.0138 -0.042,0.0654 -0.14807,1.06541 -0.23537,2.2225 -0.1288,1.70583 -0.0649,2.19776 0.33789,2.60118 0.44575,0.44638 0.43244,0.45872 -0.13174,0.11686 -0.574611,-0.34798 -0.616941,-0.27737 -0.488931,0.81965 0.077,0.66062 0.324741,1.4641703 0.550121,1.7853903 0.33055,0.47127 0.30819,0.55818 -0.11466,0.45089 -0.71463,-0.18135 -0.554241,1.03349 0.26459,2.00422 0.4154,0.49252 0.49608,0.75664 0.23923,0.78604 -0.21292,0.0243 -0.27842,0.1804 -0.14553,0.34671 0.13289,0.1663 0.10059,0.3183 -0.0717,0.3379 -0.17225,0.0197 -0.45181,-0.32859 -0.62177,-0.77391 -0.44338,-1.16167 -3.56343,-3.54611 -3.97261,-3.03609 -0.22887,0.28525 -0.51322,0.14749 -1.01865,-0.49444 -0.5657,-0.7185303 -3.63783,-2.2279803 -4.36562,-2.1447803 -0.0971,0.011 -0.13835,0.4245 -0.0921,0.91832 l 0.0832,0.8979303 -0.41892,-0.7678403 c -0.85404,-1.56535 -2.35535,-1.48321 -5.71555,0.31364 -1.29504,0.6925503 -2.73772,1.3030403 -3.20587,1.3565403 -0.46821,0.0535 -0.84485,0.14771 -0.83785,0.20891 0.007,0.0613 1.24922,1.1263 2.76049,2.36692 1.98794,1.63197 2.89325,2.18085 3.27367,1.98437 0.37998,-0.19632 0.48916,-0.13077 0.39356,0.23703 -0.1848,0.71067 1.11282,1.14714 2.29196,0.7706 0.79344,-0.25338 0.90801,-0.22136 0.64271,0.18079 -0.25613,0.38818 -0.11274,0.54866 0.69288,0.77557 0.55872,0.15766 1.31197,0.15476 1.67404,-0.006 0.47491,-0.21102 0.67468,-0.14999 0.71768,0.21828 0.0327,0.28074 0.20684,0.49345 0.38641,0.47294 0.43502,-0.0497 5.22506,1.44838 5.1059,1.59688 -0.0512,0.0638 -0.83894,-0.0161 -1.75066,-0.1775 -0.91172,-0.16136 -1.9488,-0.26008 -2.30463,-0.21938 -0.56598,0.0647 -0.58233,0.13611 -0.13064,0.57161 0.45877,0.442349 0.43977,0.478529 -0.17142,0.326319 -1.45456,-0.362279 -2.52421,-0.301009 -3.63417,0.20726 -0.87834,0.40228 -1.05774,0.6163 -0.75516,0.90234 0.30745,0.29059 0.0949,0.45119 -0.94368,0.71162 -0.92274,0.23139 -1.65313,0.7128 -2.34212,1.5445 -0.55064,0.66465 -0.84039,1.241729 -0.64436,1.28213 0.58221,0.12065 0.46349,0.5769 -0.21829,0.83895 -1.10929,0.426379 -1.64177,4.257549 -0.68846,4.953769 0.45229,0.33061 0.47261,0.51471 0.15378,1.38355 -0.41543,1.132171 0.004,3.40117 0.93872,5.083861 l 0.57603,1.036827 0.87642,-2.059889 c 1.9683,-4.62651 4.86358,-8.407589 8.33107,-10.879888 2.31139,-1.64809 2.8567,-1.65629 0.99715,-0.0149 -0.71317,0.62952 -1.94636,2.2452 -2.74064,3.59062 -1.87742,3.180131 -4.18799,8.730592 -3.87835,9.31664 0.13323,0.252062 -0.16159,2.057019 -0.65485,4.011191 -0.49331,1.954179 -0.89954,4.04645 -0.90454,4.6495 -0.004,0.60299 -0.22746,2.664618 -0.49554,4.581149 -0.26808,1.916529 -0.40173,3.646661 -0.29711,3.84473 0.1047,0.198029 0.11717,1.549419 0.0276,3.003019 -0.0896,1.453611 -0.0338,4.281649 0.12403,6.284961 0.15794,2.003269 0.25362,4.14581 0.21332,4.76084 -0.0403,0.615018 0.1251,3.14982 0.36821,5.632872 0.21931,2.243766 0.3442,3.380356 0.51428,4.011746 l 5.04638,0 c 0.26544,-0.432209 0.23866,-1.064999 0.0248,-2.898289 -0.1718,-1.47649 -0.17476,-2.85672 -0.006,-3.06697 0.21467,-0.267522 0.0858,-1.373231 -0.4294,-3.682119 -0.942,-4.221872 -0.93989,-4.196012 -0.30537,-4.268611 0.48036,-0.0549 0.45979,-0.50161 -0.19348,-4.261989 -0.62802,-3.614939 -0.66498,-4.28093 -0.26624,-4.77794 0.37173,-0.46331 0.37399,-1.345921 0.0105,-4.46208 -0.42155,-3.613841 -0.40944,-3.889879 0.17915,-3.957181 0.54166,-0.0619 0.62482,-0.392148 0.57712,-2.2936 -0.12911,-5.157229 -0.0973,-5.681389 0.34616,-5.732088 0.26383,-0.0302 0.50829,-0.711829 0.60359,-1.685069 0.20596,-2.103481 1.17184,-5.191111 2.28644,-7.306912 1.02667,-1.94881 1.39944,-2.15361 1.14322,-0.62838 -0.25956,1.545491 -0.20682,1.666242 0.57712,1.31795 0.65956,-0.29306 0.6558,-0.24756 -0.0694,0.83565 -0.55244,0.825102 -0.72466,1.509342 -0.61571,2.442981 0.11052,0.947259 0.25467,1.220309 0.53523,1.012029 0.21128,-0.1568 0.15571,0.0417 -0.12347,0.441531 -0.28837,0.413311 -0.39077,0.94815 -0.23703,1.23913 0.32162,0.608821 0.37929,0.6096 1.23638,0.02201 0.65891,-0.451719 0.66051,-0.447929 0.1808,0.496641 -0.36933,0.72721 -0.38261,1.046909 -0.0557,1.35599 0.23534,0.222521 0.63175,0.298961 0.88084,0.170329 0.30684,-0.15882 0.40975,-0.0691 0.31915,0.27946 -0.0734,0.28229 0.41471,1.319529 1.08425,2.30519 1.1151,1.642401 1.20836,1.709479 1.11786,0.804221 -0.10786,-1.074821 0.32943,-2.092531 1.66246,-3.871191 0.52211,-0.696699 0.76071,-1.34007 0.60579,-1.633248 -0.15019,-0.28422 -0.0904,-0.470191 0.14552,-0.450892 0.64632,0.0526 0.51516,-1.428248 -0.20175,-2.278168 -0.59344,-0.703741 -0.60363,-0.767642 -0.10032,-0.639962 0.80317,0.20381 0.59237,-0.984789 -0.39357,-2.218639 l -0.79319,-0.992191 0.68846,0.0959 c 0.86844,0.12152 0.81708,-0.66103 -0.18079,-2.7445 -0.49513,-1.033699 -0.60459,-1.535039 -0.35939,-1.648139 0.19376,-0.0894 0.33222,-0.482121 0.30812,-0.87257 -0.0647,-1.03383 0.77582,1.61641 0.96463,3.042159 0.12412,0.93679 0.26673,1.15365 0.63279,0.96462 0.61754,-0.31879 0.65018,0.0993 0.0706,0.90069 -0.37016,0.51185 -0.37046,1.022321 0,2.58354 0.25389,1.07008 0.54895,1.936251 0.65539,1.923751 0.10648,-0.01219 0.51984,-0.39379 0.91888,-0.84777 0.7197,-0.818399 0.71975,-0.811409 -0.005,0.84225 -0.58241,1.330409 -0.6639,1.929429 -0.39963,2.960581 0.38927,1.51833 0.64637,1.796499 1.11786,1.20882 0.65223,-0.812842 0.98699,-0.502751 0.35884,0.332378 -1.04908,1.39483 -0.54465,2.98187 0.62233,1.95792 0.91922,-0.806549 1.24705,-0.734929 0.75461,0.164262 -0.73234,1.337188 -0.37175,1.950398 2.34597,3.986388 1.44705,1.084111 2.67652,1.96557 2.73292,1.95957 0.0559,-0.006 0.0786,-0.207698 0.0507,-0.44704 -0.0279,-0.23935 0.49539,-1.524189 1.16252,-2.85529 1.22283,-2.439669 1.40384,-3.792609 0.59255,-4.428469 -0.28711,-0.225191 -0.31736,-0.359351 -0.086,-0.385849 0.19529,-0.02229 0.56406,0.15634 0.81912,0.397428 0.59079,0.55843 1.03226,0.221841 0.91556,-0.697839 -0.17711,-1.395259 -1.65259,-3.324301 -2.99255,-3.912531 -1.50873,-0.66228 -1.13037,-1.08808 0.44318,-0.498848 1.34929,0.50524 1.43141,0.48608 1.33891,-0.307021 -0.0423,-0.36294 -0.84282,-1.259659 -1.77878,-1.993199 -0.93599,-0.73351 -1.44962,-1.270122 -1.14102,-1.191722 1.79749,0.456092 -1.88326,-3.93369 -4.82754,-5.757449 -1.14862,-0.711511 -2.04388,-1.34952 -1.98878,-1.41772 0.33131,-0.41291 3.8557,1.40276 5.61027,2.890019 2.14505,1.81837 5.07428,5.836552 5.69185,7.807962 0.18992,0.606199 0.45088,1.089818 0.57988,1.07543 0.29291,-0.0335 1.18928,-2.52218 1.52852,-4.244362 0.296,-1.50279 -0.33831,-5.494769 -1.08479,-6.827349 -0.47833,-0.85377 -0.52253,-0.86568 -0.88526,-0.23427 -0.34699,0.60716 -0.39117,0.56225 -0.48617,-0.52255 -0.0727,-0.82893 -0.42037,-1.51127 -1.15149,-2.26164 -1.10439,-1.13359 -1.64563,-1.10254 -1.57923,0.0904 0.0235,0.42281 -0.0981,0.26382 -0.29545,-0.3864 -0.23209,-0.76473 -0.68962,-1.286121 -1.48663,-1.693331 -1.42321,-0.72716 -0.98866,-1.00296 1.50261,-0.95306 1.85244,0.0371 3.80622,0.56318 4.27633,1.15149 0.46307,0.579511 0.86084,0.23043 0.75682,-0.66146 -0.34143,-2.8755 -2.44945,-4.96692 -4.4439,-4.40862 -0.88749,0.24845 -1.03547,0.21642 -0.78107,-0.16922 0.24822,-0.37622 0.0836,-0.4858 -0.78548,-0.5231 -0.8083,-0.0347 -1.40682,0.20301 -2.26274,0.89903 -1.08049,0.87862 -1.14353,0.89557 -0.87919,0.23482 0.1564,-0.39138 0.19957,-0.70252 0.0954,-0.69012 -0.3156,0.0361 -2.7484,1.67927 -3.6055,2.43526 -0.44197,0.38983 -0.89377,0.71887 -1.00431,0.73147 -0.11052,0.0126 0.15313,-0.92912 0.58649,-2.09297 0.60449,-1.62346 0.66683,-2.05342 0.26734,-1.84712 -0.41864,0.21617 -0.40649,0.0859 0.0612,-0.66532 0.425,-0.68267 0.52642,-1.40824 0.37648,-2.69323 -0.19572,-1.6778503 -0.23468,-1.7383903 -0.84556,-1.3196103 -0.62185,0.42634 -0.62717,0.41366 -0.19568,-0.43601 0.39674,-0.7822 0.38039,-0.96592 -0.15159,-1.73909 -0.90454,-1.3145 -2.84807,-2.63949 -4.70959,-3.21029 -0.80538,-0.24695 -1.50908,-0.41387 -1.7005,-0.40789 z"
     style="fill:none;stroke:#000000;stroke-width:0.28222218;stroke-miterlimit:4.42857122;stroke-dasharray:none"
     inkscape:connector-curvature="0" />
  <g
     style="stroke:#000000;stroke-width:0.80000001;stroke-miterlimit:4.42857122;stroke-dasharray:none"
     transform="matrix(0.35277776,0,0,0.35277773,-162.95688,-22.857548)"
     id="g6245">
    <g
       style="stroke:#000000;stroke-width:0.80000001;stroke-miterlimit:4.42857122;stroke-dasharray:none"
       id="g6247"
       clip-path="url(#clipPath8354)">
      <g
         style="stroke:#000000;stroke-width:0.80000001;stroke-miterlimit:4.42857122;stroke-dasharray:none"
         id="g6249"
         transform="translate(1060.4491,95.3823)">
        <path
           sodipodi:nodetypes="ccccccccccccccccccccccccccccccccccccccccccccc"
           d="M -1.246888,-10.640607 C -1.622888,-10.093607 -1.982,-2.62 -1.945,-2.51 c -0.462,0.107 -1.024,0.398 -1.684,0.834 -2.008,1.324 -2.608,3.257 -2.746,5.53 -0.231,3.828 -2.424,6.021 -6.086,6.857 -2.421,0.554 -4.816,1.305 -7.268,1.623 -7.636,0.992 -11.051,5.995 -12.435,12.888 -1.135,5.656 -1.12,11.517 -3.457,17.474 0.253,0 0.5,-10e-4 0.753,-10e-4 -1.406,3.181 -2.867,6.315 -3.448,9.799 -0.039,0.23 0.067,0.41 0.219,0.518 -0.012,0.226 -0.029,0.444 -0.028,0.694 0.055,7.363 -1.124,14.559 -3.025,21.669 -2.024,7.564 -5.822,14.085 -11.106,19.791 -1.12,1.21 -2.181,2.58 -4.033,2.7 -2.707,0.176 -3.592,1.049 -1.907,3.694 1.066,1.672 -0.559,3.481 -1.416,4.453 -2.522,2.861 -3.276,6.397 -4.217,9.741 -1.687,5.985 -5.725,9.589 -11.278,10.717 -5.841,1.186 -10.008,-2.555 -13.302,-7.107 -1.674,-2.313 -2.1,-4.638 -1.162,-7.493 1.119,-3.408 2.703,-6.829 1.611,-10.657 -0.316,-1.11 0.21,-1.857 1.46,-2.665 2.084,-1.349 4.061,-3.343 3.411,-6.327 -0.449,-2.056 0.652,-3.123 2.112,-4.053 1.698,-1.082 3.044,-0.349 4.52,0.715 1.324,0.955 2.291,3.589 4.421,2.073 2.154,-1.534 0.126,-3.225 -0.519,-4.799 -0.124,-0.303 -0.152,-0.645 -0.224,-0.97 -0.48,-2.167 0.998,-5.555 -1.306,-6.303 -2.684,-0.871 -4.136,2.694 -6.27,4.115 -4.45,2.964 -6.891,8.072 -11.84,10.614 -3.483,1.788 -5.124,1.304 -5.537,-2.679 -0.467,-4.509 1.706,-7.817 5.266,-10.014 2.499,-1.543 3.294,-3.152 2.996,-6.06 -0.748,-7.286 -1.211,-14.606 -1.574,-21.923 -0.094,-1.883 -0.311,-2.946 -1.843,-3.289 -0.853,-2.544 -1.249,-4.858 0.405,-7.177 0.795,-0.315 1.525,-0.934 2.137,-2.125 0.946,-1.839 3.753,-1.009 5.555,-0.319 4.477,1.713 5.907,-0.181 5.542,-4.337 -1.195,-13.613 -1.384,-27.25 -0.946,-40.896 0.01,-0.348 -0.478,-1.576 -0.851,-2.499 -0.308,-0.052 -0.377623,-2.882176 -0.684623,-2.940176 z"
           style="fill:none;stroke:#000000;stroke-width:0.80000001;stroke-linecap:butt;stroke-linejoin:miter;stroke-miterlimit:4.42857122;stroke-dasharray:none;stroke-opacity:1"
           id="path6251"
           inkscape:connector-curvature="0" />
      </g>
    </g>
  </g>
  <path
     inkscape:connector-curvature="0"
     id="path6253"
     d="m 171.78836,28.657771 c -3.65196,0 -6.6375,-2.92799 -6.73419,-6.55725 -2.57878,0.86537 -4.98357,0.39508 -7.02965,-1.858149 -0.46214,-0.5087 -0.89335,-0.67352 -1.53292,-0.41176 -3.39726,1.389939 -3.39969,1.384609 -5.07891,-2.07367 0.54856,-0.27764 0.81593,0.43128 1.30418,0.0584 -0.22967,-0.29316 -0.48342,-0.57343 -0.68628,-0.88636 -0.28363,-0.43637 -0.76386,-0.93184 -0.5187,-1.41937 0.30621,-0.6096 0.93653,0.22232 1.48334,-0.16151 -0.0536,-0.63394 -0.53267,-1.35103 -0.0204,-2.08304 0.38241,0.26317 0.73301,0.59414 1.1493,0.77335 1.15886,0.49848 2.01221,-0.18633 2.86136,-0.83509 0.94474,-0.72249 -0.03,-1.25562 -0.2442,-1.78373 -0.47446,-1.17165 -1.34677,-2.8777597 -2.02132,-4.2509697 l 3.41922,0 c -0.51748,0.83109 0.49355,2.52195 1.02416,3.6302997 0.51262,-1.1423797 1.54016,-2.6540197 1.28487,-3.6302997 l 3.73174,0 c -0.0854,0.0854 -0.17368,0.16946 -0.26791,0.24805 -0.78249,0.49642 -1.80659,2.7197097 -2.37463,3.7807797 2.94745,-0.15169 5.49958,0.12391 8.19656,0.29325 -0.97746,-2.3399997 -2.04349,-3.8358597 -2.57802,-4.3220797 l 4.06961,0 c -0.10871,0.23765 -0.23337,0.55527 -0.25135,0.62507 -0.25752,0.99518 0.69955,2.04651 1.37585,3.1496497 0.43425,-0.41002 0.74418,-2.3925097 0.66143,-3.7747197 l 3.7119,0 c -0.48844,0.39779 -0.95335,1.80157 -1.48167,3.2086197 -0.75,1.99778 -0.55619,2.52836 1.83776,4.30389 1.31548,0.97543 2.24431,-0.0637 3.18656,-0.81084 0.44205,0.66322 0.46449,1.36437 0.32302,2.06816 -0.13653,0.67733 -0.64319,1.54508 0.79153,1.02967 0.48015,-0.17251 0.45806,0.31215 0.34728,0.51429 -0.53236,0.97014 -0.44412,2.09356 -0.77115,3.07357 -0.29788,0.892199 -1.31464,1.638149 -2.46446,2.016349 -0.32976,3.407989 -3.21148,6.085409 -6.70391,6.085409 z m 0,-1.39623 c 2.64509,0 4.82453,-1.90678 5.25805,-4.4246 -0.36308,0.0109 -0.71591,-0.0224 -1.04013,-0.10914 -0.97615,-0.26105 -1.46705,-0.21497 -2.12604,0.71989 -1.40654,1.99531 -3.79072,1.58489 -5.13128,-0.94699 -0.64519,-1.21929 -1.21691,-1.416909 -2.28478,-0.97731 -0.01,0.13124 -0.0198,0.26257 -0.0198,0.39633 0,2.95874 2.38528,5.34182 5.34402,5.34182 z"
     style="fill:none;stroke:#000000;stroke-width:0.28222218;stroke-linecap:butt;stroke-linejoin:miter;stroke-miterlimit:4.42857122;stroke-dasharray:none;stroke-opacity:1" />
  <path
     style="fill:none;stroke:#000000;stroke-width:0.28222218;stroke-miterlimit:4.42857122;stroke-dasharray:none"
     d="m 172.47211,55.274738 c 0.54925,-0.02009 1.1118,-0.211579 1.74405,-0.576018 0.82166,-0.473682 1.18979,-0.553692 1.5682,-0.340671 0.56435,0.31776 2.2021,0.120399 2.47331,-0.29819 0.2662,-0.410859 -0.69197,-1.292699 -1.87634,-1.726409 -0.94008,-0.344261 -1.03884,-0.472271 -1.08204,-1.40615 -0.026,-0.565062 -0.16785,-1.528851 -0.31529,-2.142041 -0.21064,-0.87604 -0.15925,-1.686921 0.23923,-3.784619 l 0.50711,-2.66954 -0.63169,-1.690039 c -0.28885,-2.619612 -1.20272,-4.76097 -1.0225,-8.36359 l 0.14221,-2.848131 -2.03674,0 c -0.0313,0.41213 -0.0849,1.2779 -0.14497,2.40442 -0.0743,1.391551 -0.27387,2.94637 -0.44373,3.455019 -0.16985,0.508652 -0.32134,1.494962 -0.33624,2.192161 -0.0149,0.69723 -0.077,1.26661 -0.13835,1.2656 -0.0614,-0.0011 -0.30279,0.066 -0.53634,0.149939 -0.37905,0.13631 -0.40563,-0.390339 -0.24915,-4.937788 0.0738,-2.145061 0.0819,-3.700861 0.0303,-4.529351 l -2.0191,0 c -0.0122,0.0422 -0.0238,0.0788 -0.0364,0.12513 -0.16469,0.617 -0.17978,1.39043 -0.0375,2.03895 0.17302,0.788439 0.11564,1.381329 -0.23427,2.41376 -0.25505,0.752681 -0.55282,1.927769 -0.66146,2.611681 l -0.19788,1.243527 -1.27827,-0.0276 c -1.07841,-0.023 -1.30501,-0.118141 -1.4497,-0.610201 -0.0943,-0.320799 -0.67612,-1.146979 -1.29315,-1.835539 -1.31895,-1.471899 -2.34977,-3.51307 -2.56646,-5.08274 -0.0622,-0.450419 -0.11195,-0.713959 -0.21001,-0.876999 l -1.84216,0 c -0.0328,0.0344 -0.0608,0.0708 -0.0772,0.110799 -0.30282,0.741311 0.91603,5.302219 1.81791,6.80254 1.26794,2.10927 0.93495,2.719629 -0.38034,0.69729 -1.74434,-2.681851 -2.48192,-4.39 -2.52512,-5.84675 -0.0345,-1.163149 -0.1689,-1.634989 -0.65374,-1.763879 l -0.87533,0 c -0.53806,0.0726 -0.55374,0.26681 -0.6124,1.912159 -0.0931,2.613211 0.23991,5.160351 0.83178,6.358271 0.27686,0.560358 0.49814,1.272989 0.49114,1.583659 -0.0235,1.09954 0.76892,4.913751 1.21377,5.843419 0.97856,2.04486 2.39877,2.689041 6.14275,2.78584 2.43713,0.063 3.57937,0.33771 4.6495,1.118421 0.18901,0.137889 0.39405,0.840509 0.45585,1.56105 0.10521,1.225779 0.0589,1.34795 -0.72264,1.900039 -0.45949,0.324521 -0.83991,0.762019 -0.84391,0.97234 -0.011,0.515699 0.86267,0.974651 1.7716,0.93045 0.40832,-0.0199 1.12197,0.173061 1.58585,0.428839 0.58039,0.32004 1.11652,0.471032 1.66577,0.450912 z"
     id="path6255"
     inkscape:connector-curvature="0" />
  <path
     style="fill:none;stroke:#000000;stroke-width:0.28222218;stroke-miterlimit:4.42857122;stroke-dasharray:none"
     d="m 199.81103,71.404944 c -0.86314,0.496186 -0.78611,1.954982 0.19298,3.658145 0.69091,1.201865 0.70735,1.388575 0.19879,2.289064 -0.3045,0.53918 -0.62322,1.184159 -0.70831,1.433339 -0.0851,0.249191 -0.27634,0.522551 -0.42444,0.607681 -0.14811,0.0851 -0.2184,0.242779 -0.15669,0.350119 0.0618,0.107442 -0.17293,0.573611 -0.5215,1.036071 -0.34861,0.46243 -0.99787,1.33816 -1.44299,1.94597 -2.50216,3.41667 -7.11561,6.237619 -12.91034,7.894119 -4.37915,1.251819 -6.16173,2.399089 -7.52356,4.841939 -0.53931,0.96741 -1.0808,2.50175 -1.20304,3.409662 -0.2194,1.629517 -0.2034,1.682357 1.23972,4.113067 0.80407,1.35437 1.82201,3.40929 2.26223,4.56676 0.57347,1.50823 0.9934,2.26176 1.48228,2.65815 0.96137,0.77948 1.20313,0.48823 0.94569,-1.13877 -0.18066,-1.142 -0.57567,-1.9686 -2.06606,-4.32726 l -1.84226,-2.916 1.28018,0.74042 c 2.32884,1.34674 4.45038,2.82321 4.7135,3.28092 0.14262,0.24809 0.24903,1.47199 0.23642,2.71949 l -0.0232,2.2679 2.45744,3.83905 c 1.92716,3.01058 2.60578,3.88652 3.14623,4.06172 0.37899,0.12287 0.80089,0.41769 0.93741,0.65517 0.0159,0.0276 0.0337,0.0486 0.0512,0.071 l 2.30577,-1.3255 c -0.0179,-0.0492 -0.0428,-0.10093 -0.0751,-0.15711 -0.16019,-0.27866 -0.65878,-0.59198 -1.10796,-0.69635 -0.44918,-0.10436 -1.2811,-0.67601 -1.84833,-1.27087 -1.1095,-1.16358 -3.01968,-4.57889 -2.67256,-4.77844 0.11605,-0.0667 2.05085,1.10233 4.29948,2.59828 1.86565,1.24119 3.51551,2.30951 4.17711,2.71059 l 2.49596,-1.43484 c -0.2022,-0.11493 -0.50783,-0.2684 -0.872,-0.43078 -2.7476,-1.22519 -4.14662,-2.02864 -5.74274,-3.29838 l -1.70332,-1.35485 -0.68291,-2.25745 c -0.54904,-1.81371 -1.15882,-4.93454 -1.08982,-5.57769 0.007,-0.0683 0.94951,-0.0166 2.09373,0.11506 3.89629,0.44818 5.18965,0.24743 8.05682,-1.25104 1.81904,-0.95065 2.90565,-1.693529 3.71694,-2.540458 0.63057,-0.65826 1.21797,-1.177789 1.3048,-1.15446 0.0867,0.02351 0.30983,0.313769 0.49531,0.644829 2.77855,4.954389 3.28063,5.984599 3.56286,7.311499 0.29869,1.40413 0.36313,1.50992 0.95705,1.57533 0.35015,0.0386 0.63151,0.23207 0.62528,0.4296 -0.006,0.19755 0.27298,0.51139 0.62081,0.69726 0.26386,0.14102 0.49515,0.18345 0.81727,0.10112 l 2.45154,-1.4093 c 0.19523,-0.16852 0.31735,-0.30825 0.3198,-0.386 0.006,-0.18635 -0.52528,-0.69348 -1.1804,-1.1265 -1.36205,-0.90034 -2.34129,-2.51759 -2.55736,-4.22413 -0.0772,-0.60969 -0.30192,-1.390108 -0.49962,-1.733987 -0.19768,-0.343891 -0.6915,-1.626932 -1.0972,-2.850952 -0.55557,-1.67627 -0.66455,-2.521879 -0.44103,-3.427129 0.31676,-1.28268 0.17569,-3.266789 -0.28962,-4.07622 -0.15574,-0.27091 -0.13595,-1.14973 0.0435,-1.952771 l 0.32624,-1.459789 1.13812,0.488911 c 0.62599,0.26902 1.37074,0.70746 1.65504,0.974448 0.28427,0.266982 0.9014,0.50789 1.37145,0.535342 0.81208,0.0474 0.88263,-0.0206 1.42017,-1.369591 0.60553,-1.519521 0.66016,-1.378618 -1.32343,-3.43805 -0.72608,-0.753818 -1.90613,-3.654518 -2.13633,-5.251368 -0.0389,-0.270021 -0.70591,-0.889172 -1.48234,-1.376352 l -1.41207,-0.885833 0.33938,-0.715832 c 0.88952,-1.878027 1.39039,-3.85277 1.27828,-5.037321 -0.2574,-2.719507 -1.06667,-2.743206 -2.08169,-0.06094 -0.78989,2.087231 -2.23693,4.587409 -2.44534,4.224875 -0.0851,-0.148076 -0.30287,-0.184458 -0.48371,-0.0805 -0.20723,0.11912 -0.53628,-0.168196 -0.88899,-0.777737 -0.80733,-1.394358 -1.33641,-1.724118 -2.08092,-1.296125 z"
     id="path6257"
     inkscape:connector-curvature="0" />
  <g
     style="stroke:#000000;stroke-width:0.80000001;stroke-miterlimit:4.42857122;stroke-dasharray:none"
     id="g6261"
     transform="matrix(0.35277776,0,0,0.35277773,-161.66749,-7.7922321)">
    <g
       style="stroke:#000000;stroke-width:0.80000001;stroke-miterlimit:4.42857122;stroke-dasharray:none"
       clip-path="url(#clipPath8354)"
       id="g6263">
      <g
         style="stroke:#000000;stroke-width:0.80000001;stroke-miterlimit:4.42857122;stroke-dasharray:none"
         transform="translate(1060.4491,95.3823)"
         id="g6265">
        <path
           sodipodi:nodetypes="ccccccccccccccccccccccccccccccc"
           inkscape:connector-curvature="0"
           id="path6267"
           style="fill:none;stroke:#000000;stroke-width:0.80000001;stroke-linecap:butt;stroke-linejoin:miter;stroke-miterlimit:4.42857122;stroke-dasharray:none;stroke-opacity:1"
           d="m -158.252,-8.543 c -3.765,11.104 -9.477,21.912 -16.542,30.05 -1.371,1.58 -3.64,3.332 -2.599,5.537 0.878,1.86 3.543,1.372 5.485,1.507 6.565,0.455 6.979,0.853 7.01,7.395 0.017,3.686 0.034,5.362 1.143,6.13 0.463,2.98 1.349,6.144 3.525,8.201 2.345,4.005 4.873,7.332 4.124,11.744 -0.164,0.965 0.003,2.1 -1.072,2.62 -1.279,0.618 -2.08,-0.242 -3.019,-1.011 -2.769,-2.268 -4.825,-4.805 -5.107,-8.615 -0.166,-2.25 -0.555,-4.726 -3.757,-5.372 -1.45,4.599 -1.021,9.528 -2.89,14.04 -0.671,1.619 0.064,3.489 3.123,2.266 4.159,-1.663 9.957,3.316 9.264,7.784 -0.24,1.551 0.331,2.491 0.866,3.653 2.347,5.092 2.073,12.004 -0.556,14.535 -4.384,4.224 -13.934,5.681 -19.057,2.836 -6.016,-3.342 -9.999,-8.735 -13.744,-14.236 -6.171,-9.067 -12.25,-18.211 -17.477,-27.867 -0.561,-1.036 -1.162,-1.78 -1.884,-2.293 -0.927,-2.806 -1.866,-6.044 -4.066,-7.634 l 0.04,0 c -3.174,-5.7 -5.832,-10.778 -8.796,-15.672 -1.538,-2.54 -1.446,-4.59 0.517,-6.698 2.808,-3.017 2.191,-8.381 7.05,-10.102 0.921,-0.326 0.075,-1.743 -0.167,-2.699 -0.775,-3.06 -1.35,-6.147 -0.433,-9.322 0.614,-2.125 -0.05,-3.312 -1.664,-3.951 l -1.24407,-2.8335247 z" />
      </g>
    </g>
  </g>
  <path
     inkscape:connector-curvature="0"
     style="fill:none;stroke:#000000;stroke-width:0.28222218;stroke-miterlimit:4.42857122;stroke-dasharray:none"
     id="path6389"
     class="s0"
     d="m 218.20745,122.39562 -45.02473,0 0,16.99999 45.02473,0 0,-16.99999" />
</svg>
